<?xml version="1.0" encoding="UTF-8"?>
<svg id="Layer_1" data-name="Layer 1" xmlns="http://www.w3.org/2000/svg" viewBox="0 0 1758.5 756.29">
  <defs>
    <style>
      .cls-1 {
        fill: #c35946;
      }

      .cls-2 {
        fill: #46302f;
      }

      .cls-3 {
        fill: #c25d4a;
      }

      .cls-4 {
        fill: #4f3e3b;
      }

      .cls-5 {
        fill: #413f3f;
      }

      .cls-6 {
        fill: #c25d49;
      }

      .cls-7 {
        fill: #4d4240;
      }

      .cls-8 {
        fill: #502f2c;
      }

      .cls-9 {
        fill: #c62327;
      }

      .cls-10 {
        fill: #483c3a;
      }

      .cls-11 {
        fill: #3f2120;
      }

      .cls-12 {
        fill: #190f0f;
      }

      .cls-13 {
        fill: #261211;
      }

      .cls-14 {
        fill: #5b3331;
      }

      .cls-15 {
        fill: #171111;
      }

      .cls-16 {
        fill: #bf5845;
      }

      .cls-17 {
        fill: #411514;
      }

      .cls-18 {
        fill: #c44837;
      }

      .cls-19 {
        fill: #7a3e37;
      }

      .cls-20 {
        fill: #0a0909;
      }

      .cls-21 {
        fill: #4c4a49;
      }

      .cls-22 {
        fill: #4b3e3d;
      }

      .cls-23 {
        fill: #534746;
      }

      .cls-24 {
        fill: #503d3b;
      }

      .cls-25 {
        fill: #3f2a29;
      }

      .cls-26 {
        fill: #2b1f1f;
      }

      .cls-27 {
        fill: #be5342;
      }

      .cls-28 {
        fill: #392424;
      }

      .cls-29 {
        fill: #331e1d;
      }

      .cls-30 {
        fill: #5f3230;
      }

      .cls-31 {
        fill: #413534;
      }

      .cls-32 {
        fill: #c5614c;
      }

      .cls-33 {
        fill: #473a38;
      }

      .cls-34 {
        fill: #1e1212;
      }

      .cls-35 {
        fill: #2a1d1c;
      }

      .cls-36 {
        fill: #201111;
      }

      .cls-37 {
        fill: #bf4a38;
      }

      .cls-38 {
        fill: #4c3a37;
      }

      .cls-39 {
        fill: #764c47;
      }

      .cls-40 {
        fill: #311717;
      }

      .cls-41 {
        fill: #56413f;
      }

      .cls-42 {
        fill: #4e3d3a;
      }

      .cls-43 {
        fill: #241010;
      }

      .cls-44 {
        fill: #c56852;
      }

      .cls-45 {
        fill: #875a51;
      }

      .cls-46 {
        fill: #834b43;
      }

      .cls-47 {
        fill: #1f1313;
      }

      .cls-48 {
        fill: #584b4a;
      }

      .cls-49 {
        fill: #ca6752;
      }

      .cls-50 {
        fill: #331a19;
      }

      .cls-51 {
        fill: #423b3a;
      }

      .cls-52 {
        fill: #120f0f;
      }

      .cls-53 {
        fill: #321e1e;
      }

      .cls-54 {
        fill: #302525;
      }

      .cls-55 {
        fill: #1b1414;
      }

      .cls-56 {
        fill: #48413f;
      }

      .cls-57 {
        fill: #492220;
      }

      .cls-58 {
        fill: #492624;
      }

      .cls-59 {
        fill: #554846;
      }

      .cls-60 {
        fill: #302423;
      }

      .cls-61 {
        fill: #2c1d1d;
      }

      .cls-62 {
        fill: #5e4b48;
      }

      .cls-63 {
        fill: #563e3b;
      }

      .cls-64 {
        fill: #af5041;
      }

      .cls-65 {
        fill: #524644;
      }

      .cls-66 {
        fill: #5b4845;
      }

      .cls-67 {
        fill: #c05845;
      }

      .cls-68 {
        fill: #c24a39;
      }

      .cls-69 {
        fill: #b75544;
      }

      .cls-70 {
        fill: #3f2c2a;
      }

      .cls-71 {
        fill: #5a302f;
      }

      .cls-72 {
        fill: #463b3a;
      }

      .cls-73 {
        fill: #513f3c;
      }

      .cls-74 {
        fill: #392c2b;
      }

      .cls-75 {
        fill: #4c3b39;
      }

      .cls-76 {
        fill: #3f3130;
      }

      .cls-77 {
        fill: #a34c40;
      }

      .cls-78 {
        fill: #514340;
      }

      .cls-79 {
        fill: #552e2b;
      }

      .cls-80 {
        fill: #3f2d2b;
      }

      .cls-81 {
        fill: #3e1d1b;
      }

      .cls-82 {
        fill: #281a1a;
      }

      .cls-83 {
        fill: #a45044;
      }

      .cls-84 {
        fill: #483b39;
      }

      .cls-85 {
        fill: #bb2327;
      }

      .cls-86 {
        fill: #301817;
      }

      .cls-87 {
        fill: #421f1d;
      }

      .cls-88 {
        fill: #231111;
      }

      .cls-89 {
        fill: #533e3a;
      }

      .cls-90 {
        fill: #554745;
      }

      .cls-91 {
        fill: #bc2227;
      }

      .cls-92 {
        fill: #453b3a;
      }

      .cls-93 {
        fill: #070909;
      }

      .cls-94 {
        fill: #4f3d3b;
      }

      .cls-95 {
        fill: #a24f43;
      }

      .cls-96 {
        fill: #241717;
      }

      .cls-97 {
        fill: #b95b4b;
      }

      .cls-98 {
        fill: #4f3532;
      }

      .cls-99 {
        fill: #4f413f;
      }

      .cls-100 {
        fill: #473e3d;
      }

      .cls-101 {
        fill: #4e4140;
      }

      .cls-102 {
        fill: #d87e65;
      }

      .cls-103 {
        fill: #a53b2e;
      }

      .cls-104 {
        fill: #70544f;
      }

      .cls-105 {
        fill: #632927;
      }

      .cls-106 {
        fill: #735550;
      }

      .cls-107 {
        fill: #524240;
      }

      .cls-108 {
        fill: #422d2b;
      }

      .cls-109 {
        fill: #c25b49;
      }

      .cls-110 {
        fill: #4e413f;
      }

      .cls-111 {
        fill: #d57c63;
      }

      .cls-112 {
        fill: #441616;
      }

      .cls-113 {
        fill: #81554e;
      }

      .cls-114 {
        fill: #50403d;
      }

      .cls-115 {
        fill: #4a2220;
      }

      .cls-116 {
        fill: #be5947;
      }

      .cls-117 {
        fill: #3b2827;
      }

      .cls-118 {
        fill: #251112;
      }

      .cls-119 {
        fill: #513f3d;
      }

      .cls-120 {
        fill: #332726;
      }

      .cls-121 {
        fill: #584643;
      }

      .cls-122 {
        fill: #482825;
      }

      .cls-123 {
        fill: #53413e;
      }

      .cls-124 {
        fill: #bc2327;
      }

      .cls-125 {
        fill: #4d4140;
      }

      .cls-126 {
        fill: #51423f;
      }

      .cls-127 {
        fill: #54403d;
      }
    </style>
  </defs>
  <g>
    <path class="cls-124" d="M1757.85,180.09c-.23.33-.27.82-.55,1.11-1.16,3.22-3.38,5.9-6.66,8.06,1.5.86,1.7,1.62.58,2.28.43.85-.64,2.17-1.61,1.72-2.27,2.79-4.82,5.17-7.65,7.15-.72,1.4-2.96,3.66-4.55,3.82-.81,1.29-1.94,2.58-3.39,3.88-3.13,1.98-4.53,4.35-4.19,7.12.79-.68.97-.33.62.64,1.3-.27,2.38,2.69,1.64,3.67.11,1.07.09,2.93-1.17,2.85-.7.03-1.59-.38-2.28-.25l-1.15-.12c-.08-.95-.77-.65-2.06.91-1.73,3.22-3.75,6.25-6.06,9.1-.7,1.74-1.06,3.59-1.07,5.53l-.58.34c-.57,1.32-1.15,1.84-1.75,1.57-4.24,4.54-8.57,8.74-13,12.61-2.21,3.04-4.77,5.86-7.66,8.45-.74,1.45-1.53,2.5-2.84,3.48,1.06-.35,1.78-.11,2.14.72.63-.62,1.03-.7,1.21-.24-.13,1.53,1.44,5.62-.14,6.8-.42-.05-.22-.66-.23-.62-.75,4.08-2.01,4.15-5.91,3.76.36.22.09.42-.82.57.82,1.89,1.91,4.87.46,6.82l.26.63c-3.72,5.3-7.53,10.55-11.42,15.73l-.57,2.31c-1.74,2.29-2.95,4.94-3.65,7.97l-18.24,18.8-2.39,3.31c-.6,1.67-1.41,2.78-2.43,3.3.36.91-.22,2.01-1.13,2.37,1.3,1.45-3.24,4.36-4.77,5.2-.15.08-.41-.03-.69-.19-1.46,2.06-3.2,4.22-5.47,5.3.44,1-.57,1.47-1.17.48-1.3.82-2.55,1.77-3.76,2.85-.39,1.33-1.16,2.6-2.3,3.82v.76c-2.17,3.14-4.25,6.35-6.24,9.62l-.88.06c.16.31.25.59.16.75-1.12,1.77-3.06,4.32-4.62,5.37-2.35,4.11-6.42,8.73-10.76,10.41l-.12.89c-4.12,2.57-7.59,5.43-9.78,9.83l-.72-.1c-1.79,4.58-6.56,8.78-10.9,11.27-.57.66-4.9,4.19-5.24,4.18-.29,0-.58-.15-.87-.32l-1.19,1.61c.25,3.22-.52,5.66-2.32,7.33.48.56.36,1.16-.43,1.09-1.94,3.32-5.3,6.41-9.15,7.07-.81.79-1.77,1.53-2.87,2.22.56,1.71-1.5,4.97-2.68,6.64-4.36,4.69-8.79,9.25-13.3,13.69.22,1.08-1.64,3.46-2.67,3.9l-1.69,1.6c-.11.67-.66,1.12-1.09.48-1.91.8-3.27,2.16-4.4,3.89.14,1.27-1.67,3.83-2.8,4.45-1.42,2.28-3.24,4.83-5.37,6.51-.91,1.66-2.22,3.15-3.95,4.47l-.27,1.27-14,15.18-.55,3.3c.9,1.12,1.63,2.48,2.19,4.09.91,3.6,1.83,7.2,2.76,10.81,1.81,1.32,1,3.76,1.84,5.8,1.31,3.15,1.36,5.95,1.74,9.36.15,1.38,2.16,2.57,1.41,4.61-.62,1.7.3,3.49.44,4.9l.59,1.08c-.11,2.78.05,5.54.5,8.27v28.02c-.14,1.36-.3,2.64-.48,3.85l-.59,2.75c.52,1.48.24,3.06-.82,4.72-.86,4.54-2.97,13.53-5.74,17.02-.27.34-.69.57-1.15.76-.32.98-1.01,1.7-2.04,1.8-1,1.19-3.52,2.38-5.03,2.64-.77-.41-2.24.54-3.13.34-1.69-2.11-4.4-3.6-5.62-5.85l-9.23-9.89c-.64-.59-.75-1.13-.31-1.62-4.62-5.36-8.66-11.18-12.12-17.47-3.29-6.35-6.39-12.44-9.3-18.28-1.19-.7-2.08-1.95-2.66-3.73-.92,1.19-1.99,1.9-3.23,2.13l-.09.8c-6.04,5.97-11.91,12.16-17.6,18.58l-.94.42c-.77,1.5-1.57,2.27-2.39,2.3.15.22.18.47.02.69-3.11,4.23-7.41,8.55-11.35,11.71-2.09,3.09-5.42,6.65-8.42,8.95-3.27,4.52-7.84,8.94-12.07,12.68l.14.66c-5.07,5.39-10.27,10.5-15.59,15.33-7.3,7.99-15.45,16.07-23.37,23.69-.09.09-.34.02-.62-.1-1.88,2.42-3.58,4.97-5.1,7.65-1.24,2.23-3.6,3.5-5.98,4.31-.27,1.08-2.58,2.72-3.82,2.68-.55.7-1.28,1.36-2.2,1.21l-.15.73-5.36,3.08c-.39.89-1.17,1.74-2.35,2.54-1.06,1.69-2.3,2.9-3.73,3.65.27.6,0,1.09-.33,1.6-.93,1.45-4.69,4.42-6.18,3.75l-3.95.75-22.97.02-3.88-.79c-.28.37-.67.18-1.15-.57-.27.32-.53.56-.72.51-2.19-.48-5.25-1.43-6.92-2.7-1.51-.07-2.61-.44-3.3-1.1-1.3.28-2.66.02-3.85-.55-.79-.21-1.34-.6-1.66-1.19-.23.44-.42.4-.58-.09-1.25-.75-2.48-1.67-3.7-2.75-2.89-.99-5.7-2.08-8.44-3.28l-.3-.84c-3.8-3.2-5.27-7.72-4.43-12.59l5.8-9.53c2.36-3.16,5.1-5.68,8.23-7.55.12-.38.25-.75.45-1.07.54-.86,8.21-8.17,8.9-8.5.37-.17.79-.24,1.22-.27,2.02-2.36,4.18-4.56,6.5-6.61l-.02-.97c3.06-2.92,5.53-6.22,7.41-9.89l.76-.32c-.5-1.78,5.55-7.79,6.34-7.85.3-.02.6.09.91.23.38-.94,1.59-2.27,2.54-1.9,7.81-5.53,14.54-13.36,20.72-20.64l-.18-.41c6.23-7.45,12.69-14.63,19.37-21.56,4.99-4.74,6.03-7.47,9.83-12.64,1.71-1.32,3.31-2.87,4.8-4.67l.66.24c3.43-3.7,6.56-7.54,9.38-11.51l-.18-.7c2.54-3.85,5.41-7.46,8.6-10.84,1.59-2.85,4.82-4.48,6.71-7.36.57-.86.92-1.58,1.55-2.15.84-2.62,3.63-5.44,5.74-7.26.08-.07.33.04.61.2l5.52-6.23c1.3-2.05,2.77-3.95,4.39-5.67.68-2.8,3.57-7.14,6.47-7.8,2.15-2.21,4.23-4.55,6.23-7.02-1.07.08-1.06-.36.01-.68-.36-.89-.65-1.85-.88-2.89-3.84-8.23-7.35-16.56-10.54-24.97l-.78-.71-1.02-2.31c-.19-.81-2.26-6.1-3.2-6.96l-.62-1.69c.12-.33-.14-.78-.06-1.12-.66-.66-1.15-1.63-1.49-2.92.14-1.35-1.74-1.97-2.15-5.89-.51-.68-.9-1.46-1.15-2.35-1.08-3.83-1.28-.92-1.82-5.31-1.88-2.92-3.02-5.91-3.41-8.96l-1.15-1.58c-4.77-11.14-9.67-22.1-14.68-32.88-3.6-4.99-2.93-5.44-3.96-8.33l-1.28-1.52c-3.63-7.42-7.62-14.56-11.97-21.41l.16-.53c-4.08-5.51-7.96-11.17-11.65-16.98l-5.05-6.09-.43-1.68c-1.83-1.37-3.47-3.11-4.94-5.22-1.94-2.53-3.77-3.9-6.54-4.73-1,.25-2.08.25-3.25,0l-2.77-1.14c-2.19.66-6.01-3.32-7.39-5.19-2.07-2.8-4.73-6.76-4.83-10.07-.3-.04-.56-.11-.62-.25-3.77-8.3,4.89-26.55,14.03-29.01,3.32-2.11,6.45-4.72,10.88-3.83,1.25-.36,3.03-2.32,4.45-2.09,2.01-.37,4.52-.55,6.59-.08.15-.29.3-.52.48-.54,6.08-.5,15.03-.57,21.09-.02.15.01.28.26.41.56.64-.78,2.15-.85,2.75,0,.48.16.47.34,0,.55-9.19.35-18.55.43-28.06.27,9.78.17,19.5.08,29.15-.27.64-.94,2.41-.76,3.3.03,3.45.4,7.18-.66,10.7.36,1.35.39,2.21,1.97,4.24,1.28.86-.29,2.04.09,2.6.54,3.49,2.6,6.74,5.54,9.74,8.81l.18.99c4.63,3.75,8.83,7.95,12.58,12.59.36-.08.67-.12.79,0,2.2,2.53,3.52,5.69,4.23,8.91.45.18.45.37,0,.55.99,1.86,2.37,3.46,3.85,4.95.27-.15.49-.25.54-.2,1.52,1.62,3.45,4.86,4.45,6.92.59.56,1.17,1.17,1.62,1.87,3.78,5.93,9.02,16.3,11.61,22.82.05.12,0,.29-.08.46.77.73,1.32,1.64,1.65,2.74.33-.04.62-.03.75.11.65.7,2.91,7.94,3.38,9.63.09.33.12.58-.15.84,1.48.92,1.71,2.75,1.91,4.32.32.01.6.06.7.21,1.2,1.86,2.84,4.88,3.88,6.9.07.14.03.33-.04.54,2.79,3.75,5.11,8.17,6.59,12.69.33-2.2,3.11,9.31,3.02,7.62.17,3.08.65,4.4,2.38,6.67,2.22,2.91,3.59,6.62,4.95,9.84.42.79.75,1.87.96,2.8.02.07-.57-1.21.23-1.16.8.78.31,1.94.74,3.1.56,1.54,2.02,2.65,1.42,4.6-.4,1.29.52,2.35.59,3.28.43,3.25,1.55,4.73,3.34,4.45,5.03-4.5,7.55-6.74,7.55-6.74l.65.11-.05-.8c9.88-9.68,19.59-19.47,29.13-29.35.98.33,1.03.28.13-.18,1.23-1.32,2.15-2.77,2.78-4.35,2.31-4.03,5.37-7.7,9.16-11.01,14.39-14.55,28.89-28.97,43.51-43.28l3.75-2.68,1.59-.51c5.76-4.72,11.32-9.68,16.67-14.89-.17-.32-.29-.6-.2-.74.75-1.19,5.18-5.17,6.55-6.21.11-.08.38.05.69.24,1.07-1.82,2.71-3.23,4.44-4.4,1.14-1.33,2.04-3.92,3.13-4.92,2.14-1.2,4.73-1.52,6.69-3.45l16.24-16.02,3.63-1.97c3.91-2.12,4.72-3.63,6.56-3.87,3.86.1,8.05-3.58,9.42-7.1.69-.62.96-1.9,2.22-1.63.79-.57,1.56-1.13,2.31-1.7,2.78-2.28,10.82-9.9,14.08-10.44,2.08-.07,4.18-.94,6.28-2.62,4.21-1.26,7.73-3.75,10.56-7.48l6.84-5.84c-.45-.16-.45-.35-.01-.56.61-2.04,3.78-4.28,6.08-4.51,3.75-2.05,7.49-4.1,11.21-6.14l.8.15c2.03-1.05,4.07-2.28,6.12-3.68,1.93-1.44,3.42-3.12,4.47-5.04.52-.33,1.18-.96,1.56-1.43.64-.46,1.19-.67,1.65-.63l.09-.5c3.76-.94,7.02-3.01,9.77-6.22l2.74-1.67c.21-.11.51.02.73-.06,1.21-.34,2.35-.99,3.42-1.94,1.48-.65,3.07-.62,4.77.09-.03,1.41.12,2.77.42,4.1Z"/>
    <path class="cls-65" d="M1586.36,301.67c-1.95,2.86-4.91,4.66-7.52,7.28l-39.15,39.25-9.76,10.43c-.12.48-.27.44-.44-.06.24-1.4,1.47-1.95,1.44-3.97l50.95-50.9c1.34-1.1,3.22-1.31,4.47-2.03Z"/>
    <path class="cls-110" d="M1441.77,571.41c.38,1.25-.16,2.07-1.19,3.1l-45.63,45.31c-1.33.95-1.56.69-.44-.51l15.45-15.99c3.92-3.79,8.14-7.84,12.64-12.16,2.02-3.09,5.39-6.61,8.37-8.94,3.3-3.72,6.65-7.5,10.05-11.34l.71.05c.49.07.49.24.04.49Z"/>
    <path class="cls-6" d="M1497.94,393.31c-1.54,1.58-1.94.62-.66-.94l18.82-19.27c1.68-1.11,3.48-2.84,5.41-5.19.39-1.03,1.85-2.27,2.8-2.64l1.65-1.65c.66-1.94,3.18-2.98,3.54-5.05l.44.06c1.46-.11-2.85,5.52-2.09,4.75l-27.01,27.29c-1.06,1.07-2.15,1.56-2.88,2.64Z"/>
    <path class="cls-127" d="M1695.83,264.49l-1.21.24c-.78-.78-.36-1.22.74-1.04l.11-1.93c6.8-7.11,13.68-14.2,20.62-21.25l1.62-2.61c1.94-5.92-2.22-3.53,7.71-14.96-.11,1.18-.11,2.21-1.22,3.29-.57.55-.36,1.67-.93,2.33-1.5,1.73-3.51,3.2-4.32,5.55-.7,2.02.5,5.3-1.2,7.01l-20.22,20.39c-.94.95-1.62,1.82-1.72,2.99Z"/>
    <path class="cls-51" d="M1342.33,669.11c.13,2.16-1.15,2.82-2.74,3.83-2.57,1.62-4.7,3.87-8.19,3.86l-22.99-.06c-5.29-.01-4.79-2.14-7.39-2.72,2.38.53-9.6-2.86-6.38-2.66.12-.26.49-.26,1.1,0,2.38,1.1,5.07,1.68,7.64,2.18l1.66,1.34c9.35.74,18.75.87,28.19.38l1.52-.6c-.24-.32-.05-.5.57-.54,2.78-1.11,4.79-2.99,6.5-5.35.51-.86.88-.64.52.35Z"/>
    <path class="cls-74" d="M1578.63,415.4c.4,2.42-.78,4.35-2.46,6.08-3.94,4.06-6.69.69-11.74,9.18l-.25,1.61c-1.68,2.56-11.11,12.5-13.58,13.86-.26.14-.64.08-1.05-.05.14-1.66,6.64-7.61,8.42-9.23,3.49-3.19,5.87-6.93,7.56-11.1.9-.89,1.87-1.42,2.91-1.61,3.88-1.68,6.92-4.24,9.11-7.67.1-.45.22-.71.43-1.09.26-.44.45-.44.66.03Z"/>
    <path class="cls-107" d="M1650.83,336.09c-.23-.52-.25-1.26-.08-2.22,3.1-8.26,17.01-18.24,22.54-25.69,1.22-3.64,2.47-7.22,4.75-10l.17,2.77c-.92-1.38-4.43,8.37-3.6,7.52l-18.66,19.1c-1.31,1.34-1.89,2.53-2.51,4.25,1.83-5.06-4.3,9.64-2.6,4.27Z"/>
    <path class="cls-108" d="M1610.04,381.25c.49-.02.49.12.06.4-3.93,2.47-7.72,5.53-10.21,9.8-.65,1.11,0,2.84-1.05,3.86-2.4,2.35-4.56,4.93-7.19,7.01-.82.65-4.56-.25-9.45,6.01-.59.76-.91,1.61-1.75,1.81-.7-1.24-.1-2.8,1.03-3.72,2.06-1.24,3.94-2.82,6.11-3.86,4.2-2.41,9.27-6.78,10.9-11.27,1.53-2,2.51-5.02,4.68-6.52l5.94-4.1c.63-.02.94.17.92.57Z"/>
    <path class="cls-22" d="M1530.93,469.62c-4.47,6.15-10.82,10.41-16.27,17.31-1.78,2.25-.91,6.07.89,7.93-.66,3.64,2.54,5.47,2.18,11.15-2.21-4.91-2.52-9.74-4.95-14.9,0-1.13.19-2.23.55-3.3,3.94-5.96,9.07-11.56,14.27-16.44,1.01-1.21,1.94-1.83,2.78-1.88l.55.13Z"/>
    <path class="cls-113" d="M1490.11,584.55c.44,1.06-.07,1.29-.97.52-.09-1.71-2.45-2.54-2.94-4.06-.77-2.35-2.37-3.4-3.57-5.28-1.73-2.71-3.76-6.21-5.7-9.12.09.13-7.57-16.32-8.67-17.25-.75-.7-.53-1.03.43-.56,1.01,1.26,1.84,2.41,2.66,4.17,5.27,11.23,11.56,21.7,18.76,31.59Z"/>
    <path class="cls-30" d="M1401.67,401.92c-.06.84-.41.85-.51.05-.55.3-1.72-3-2.82-5.09l-1.69-3.24c2.65,5.1-6.81-17.51-5.39-12.67-.41-1.4-1.17-2.37-1.66-3.4l-1.76-3.62-2-6.47c3.58,4.95,5.54,11.06,8.26,16.88s5.3,11.69,7.56,17.58Z"/>
    <path class="cls-78" d="M1394.95,619.82l-26.15,26.25c-.39-.87.16-1.79,1.66-2.75l.05-.41,24-23.6c-.43.39.01.91.44.51Z"/>
    <path class="cls-100" d="M1753.97,191.11c-.46.8-1.55,1.27-2.33,2.05l-20.42,20.43c.46,1.14,2.83,8.31,1.36,7.71-.55-.03-.71-.62-.47-1.76.27-1.37-.9-2.53-1.64-3.67.06-1.09.22-2.22.46-3.4-.83-1.34,2.49-4.74,3.78-3.81.35-.75.97-1.35,1.72-1.7-1.01-.71.67-2.27,1.67-2.1.62-1.39,2.73-3.16,4.27-3.87,2.25-2.51,4.67-5.09,7.26-7.73.58-.41.72-1.6,1.61-1.72.12-1.01,1.19-1.44,2.14-1.57.12-.5.32-.51.6-.07,1.19.17.93.58,0,1.21Z"/>
    <path class="cls-46" d="M1335.35,255.32c-6.84,4.35-12,10.74-13.61,19.08-.69,3.58-1.25,6.84.21,10.19.2,1.09-.22,1.3-.95.46-1.02-4.13-1.06-9.23.37-13.39l1.73-5.02c1.4-4.08,5.49-7.17,8.94-10.63.81-.81,2.52-.27,3.31-.68Z"/>
    <path class="cls-59" d="M1464.41,547.1l-18.48,18.95c-.24.25-2.49,5.9-4.17,5.37-.05-.15,0-.33-.04-.49-.44-.69-.19-1.02.58-.74.33-1.04.96-2.37,1.87-3.19,3.4-4.64,7.79-8.48,11.79-12.88,2.28-2.51,4.22-5.07,6.84-6.91.81-.42,1.35-.46,1.61-.11Z"/>
    <path class="cls-90" d="M1339.23,574.07c-.17.48-.36.46-.57-.01-.25-.1-.24-.25-.03-.44,1.05-.91,1.22-2.57,1.87-3.69,5.85-6.26,11.87-12.07,17.92-17.82-.04.98-.84,1.58-1.56,2.38l-7.24,8.13c-2.36,2.65-4.88,4.91-7.03,7.81-1.02,1.38-2.74,2.16-3.36,3.64Z"/>
    <path class="cls-99" d="M1342.33,669.11l-.52-.35c1.71-2.35,3.45-5.02,6.08-6.19,2.12-1.43,4.27-2.52,6.45-3.27-.12-.52.3-1.11,1.27-1.75.86-1.32,2.6-1.77,3.82-2.68l3.1-1.46c.98-.89,1.95-1.5,2.92-1.84.09-1.07.46-1.64,1.13-1.71.21,1.57-.17,2.87-1.32,3.94-1.06.99-2.6,1.27-4.2,1.61-3.35.71-4.85,4.61-7.65,5.9-3.16,1.45-6.17,2.31-8.44,5.6-.62.91-1.49,2.13-2.63,2.2Z"/>
    <path class="cls-8" d="M1428.77,468.01c-.83,1.08-1.42.95-1.17-.53.6-1.79-.44-2.62-1.24-4.19-3.41-6.62-1.28-4.42-3.77-8.91-.33-.6-2.64-6.21-3.53-6.97-.74-.64.1-2.41-.57-3.21-1.09-1.29-1.53-2.57-1.13-4.04,1.56,1.43,2.01,3.85,2.93,6.02l8.54,20.06c.32.75.56,1.33-.06,1.78Z"/>
    <path class="cls-1" d="M1586.36,301.67c1.56-.91,3-2.03,4.45-3.45l11.16-11.01,2-1.29.64.35c-.77.99-1.57,2.36-2.62,3.37l-10.07,9.7-2.71,1.62c-1.03.62-1.88,1.11-2.85.72Z"/>
    <path class="cls-123" d="M1368.78,335.67c.53,1.03.46,1.16-.53.48.27-1.61-2.35-2.43-2.74-3.69-.73-2.36-2.31-3.52-3.5-5.4l-2.76-4.37c-2.1-3.33-4.08-6.71-7.42-9.14-.82-.59-.76-1.58-1.16-2.12-.18-1.06.24-1.28.99-.5,6.39,7.74,11.79,16.28,17.12,24.75Z"/>
    <path class="cls-72" d="M1640.01,346.72c-3.02,4.16-8.25,6.76-10.49,11.57l-1.55,3.33c-.79,1.69-1.79,2.48-3.01,3.61-1.11.34-1.07-.08-.62-1.08,2.43-3.35,4.05-7.53,7.12-10.44.72-1.46,1.67-2.41,2.85-2.86-.2-1.41,1.81-3.55,3.21-3.81l1.17-.48c.73-.69,1.27-1.01,1.32.17Z"/>
    <path class="cls-104" d="M1338.66,574.06c0,.53-.07,1.02-.34,1.34-5.81,6.9-12.63,13.96-19.82,19.32l-2.54,1.9c-1.23-.15-1.13-.86.08-1.09,7.84-6.89,14.62-14.95,22.59-21.9l.03.44Z"/>
    <path class="cls-81" d="M1381.87,359.14c-2.19-.46-2.74-3.02-3.69-4.84l-5.37-10.27c-.55-1.06-4.79-6.55-4.57-7.88.33.05.56-.13.53-.48l4.66,7.4c3.25,5.17,6.43,10.42,8.43,16.07Z"/>
    <path class="cls-84" d="M1515.44,598.72c-1.33.1-.83-.83.04-1.58,3.8-7.03,6.32-14.63,7.7-22.5l.59-2.75c.15-1.27-.49-2.87.48-3.85,0,2.89.51,6.11-.33,9.1-.3,1.09-1.99,1.81-1.35,3.53.83,2.21-.75,3.83-1.36,5.61l-1.97,5.76c-.59,1.73-.72,3.15-2.05,4.67-.35.4.07,1.53-.55,1.86-.35.19-.82.02-1.19.15Z"/>
    <path class="cls-38" d="M1678.04,298.18c.9-2.95,9.4-14.5,11.16-16.36.3-.98.66-1.19,1.07-.63.34,2.01-2.08,3.16-2.74,4.87-.8,2.08-2.2,3.27-3.29,5.03-1.72,2.77-3.36,5.48-6.2,7.09Z"/>
    <path class="cls-42" d="M1283.5,631.87c-4.28,4.91-9.02,9.44-12.49,15.26-.46.77-.61,1.95-1.54,1.82.47-2.72,3.09-4.66,3.88-7.16l.64-2.02c1.17-3.72,6.06-6.28,9.29-9.03.51-.03.58.35.22,1.14Z"/>
    <path class="cls-75" d="M1624.96,365.23c-1.55,1.45-2.83,3.44-4.18,5.34-.75,1.05-.05,2.88-1.07,3.88-2.4,2.39-4.6,4.86-7.16,7.05-.64.55-1.94-.06-2.47.15l-.06-.4-.08-.53c3.77-2.83,7.76-6.23,9.92-10.46,1.52-1.77,3.06-4.18,4.46-6.11.13.4.34.77.62,1.08Z"/>
    <path class="cls-56" d="M1334.16,299.84l2.77,1.14c.97-.24,2.25,0,3.25,0,.49.12.5.3.05.55-2.39-.78-5.96.98-8.3-1.14-2.14-1.95-4.84-4.04-6.46-6.57-1.76-2.74-3.73-5.78-4.47-8.77.33-.13.64-.28.95-.46,1.8,4.16,3.73,8.29,7.01,11.79,1.53,1.64,3.61,2.29,5.21,3.46Z"/>
    <path class="cls-89" d="M1453.98,320.76c-.16.48-.34.47-.55,0l-9.03-17.81-4.11-7.34c1.98.95,3.16,2.95,3.99,5.15,1.11,2.92,7.22,13.14,9.7,20Z"/>
    <path class="cls-88" d="M1757.3,185.58c.03.83-.19,1.05-.66.67-.62,1.16-1.63,2.26-3.03,3.29-.4-.83-.48-.69-.24.43-.08.51-.28,1.01-.64,1.34-.44.4-1.02.17-1.5.23.04-1.43-1.56-.67-3.16-1.95,3.98-2.18,6.46-5.34,9.24-8.38v4.38Z"/>
    <path class="cls-125" d="M1419.36,265.86l-.65.46c-1.57-1.56-3.19-3.04-4.85-4.44-3.26-3.31-6.97-6.19-9.93-9.8.59.48,1.86.23,2.62.76l12.8,13.03Z"/>
    <path class="cls-92" d="M1294.06,620.29c.6-.77.96-.83,1.09-.17.2.62-.16,1.25-1.07,1.91-3.16,3.62-6.83,6.84-10.58,9.85-.51.29-.42-.05-.38-.23.09-.39.09-.76.16-.91.52-.44.75-1.18,1.36-1.75,2.78-2.63,5.46-5.08,8.05-7.91.45-.49.89-.7,1.37-.78Z"/>
    <path class="cls-94" d="M1546.82,450.37l.07-.38c.79-1.4,1.31-2.97,2.67-3.9,5.12-3.54,9.23-8.55,13.82-13.16.48-.48.76-1.78,1.05-2.26-.18.56.44,1.92-.2,2.56l-14.97,15.19c-.84.86-1.09,2.2-2.44,1.96Z"/>
    <path class="cls-27" d="M1704.05,208.11c-2.11,3.04-5.34,5.2-7.9,8.03-2.2,2.43-4.29,3.78-7.3,5,.45-.18-8.59,4.85-8.47,2.9,5.24-.86,1.94-3.07,9.9-4.39l2.19-1.66c1.68-2.53,4.17-4.75,6.59-6.54,1.34-1.5,2.82-2.78,4.46-3.86l.53.5Z"/>
    <path class="cls-105" d="M1379.24,248.23c1.46.18,1.4.68,0,1.1-2.41-.18-5.03.34-7.62-.13-7.01-1.28-6.9.52-14.36.13-.43-.09-.61-.28-.55-.55-.48-.16-.47-.34,0-.55h22.53Z"/>
    <path class="cls-77" d="M1419.36,265.86c2.02,1.66,4.35,3.35,5.54,5.66,1.33,1.1,1.84,2.08,1.53,2.95-4.94-3.79-8.74-8.7-12.58-12.59,1.91.08,3.11,3.65,5.5,3.98Z"/>
    <path class="cls-97" d="M1748.51,177.89c.65.36-7.15,6.52-7.5,6.64l-5.1,1.75c-.97.55-1.25.2-.59-.7.36-.45,1.86-.09,2.68-.52,2.85-1.49,4.76-4.05,7.11-6.15.94-.84,2.46-.55,3.39-1.03Z"/>
    <path class="cls-10" d="M1308.72,604.23c-2.26,3.99-4.68,8.14-8.14,11.19-.89,1.2-1.76,1.67-2.61,1.42-.3-.19-.25-.34.11-.47,2.09-3.57,5.89-5.95,8.42-9.57.59-.84.17-2.53,1.57-2.68.57-1.01.7-1.07.66.12Z"/>
    <path class="cls-114" d="M1383.1,523.53c.03,1.06-.73,1.09-.92,0,.32-.81.18-1.63,1.28-2.44.7-.52.44-2.02,1.14-2.64,2.47-2.2,4.29-4.86,6.92-6.46-3.43,6.12-4.55,6.07-8.42,11.54Z"/>
    <path class="cls-116" d="M1406.14,495.41c.05-.96.59-1.96,1.62-3.02,2.63-2.47,4.91-5.42,6.81-8.47.64-.44,1.13-.57,1.49-.41-3.56,6.05-4.1,7.09-9.91,11.9Z"/>
    <path class="cls-16" d="M1383.1,523.53c1.22,1.6-7.75,10.59-9.38,11.51-.26-1.35,1.21-2.79,2.23-3.74,1.94-2.73,5-4.61,6.24-7.76h.92Z"/>
    <path class="cls-76" d="M1286.34,668.42c.18,1.14-.47,1.12-1.06.18-.64-.21-1.48-.59-1.96-1.31-.82-1.24-2.18-1.15-3.24-1.82-5.44-3.41-6.37-.44-6.18-3.93,4.59,3.42,10.92,1.8,12.44,6.88Z"/>
    <path class="cls-79" d="M1351.66,310.92c-.32.19-.65.36-.99.5-2.83-3.79-6.06-8-10.44-9.89l-.05-.55c.84,0,2.71-.19,3.5.43,2.93,3.12,5.39,6.38,7.98,9.52Z"/>
    <path class="cls-24" d="M1611.11,278.54c.21-.39.4-.42.64-.03.71-.12.67.23-.1,1.04-.69.41-.94,1.5-1.71,2.13-1.88,1.54-3.95,2.8-5.34,4.59-.83.18-2.47,2.24-2.64.94,2.97-2.93,5.48-6.61,9.15-8.67Z"/>
    <path class="cls-32" d="M1722.12,197.05c-1.44.04-1.32-.44.01-.91,4.48-.81,7.77-6.03,10.58-7.81.26.35.64.54.97.9-5.03,4.92-5.3,5.55-11.56,7.81Z"/>
    <path class="cls-101" d="M1316.05,595.52l-.08,1.09c-2.76,2.07-5.52,4.55-7.25,7.62-.18-.29-.42-.58-.66-.12.63-.87.43-2.3,1.3-3.19l4.9-4.99c.51-.52,1.38-.26,1.78-.41Z"/>
    <path class="cls-83" d="M1722.13,196.14v.91c-3.01,2.91-3.25.85-8.41,4.9-1.09.86-2.69.4-3.61,1.08-.47.15-.47.04-.07-.3,1.65-1,2.9-2.72,5.03-3.29,7.34-1.96,2.06-2.4,7.05-3.3Z"/>
    <path class="cls-69" d="M1497.28,392.37c-.14.24-.03.45.05.68.13.35.29.51.62.26-.47.69-6.68,8.31-8.21,6.63-1.4-.16-1.37-.5.09-1.02,2.54-1.94,5.19-4.23,7.46-6.55Z"/>
    <path class="cls-7" d="M1545.72,451.49c-2.05,3.57-3.95,3.09-7.58,8.91-.51.81-.14,2.19-1.35,2.17-.27-.14-.25-.32.02-.51-.79,0-.76-.55.11-1.67.68-1.61,1.47-3.28,2.8-4.45,1.06-1.67,2.5-3.19,4.4-3.89l1.09-.48c.06-.35.24-.36.52-.09Z"/>
    <path class="cls-126" d="M1406.14,495.41c-2.36,1.8-3.15,4.16-6.36,7.07-.61-1.66.08-2.7,1.28-3.82l6.69-6.26c-.44.8-.82,2.41-1.62,3.02Z"/>
    <path class="cls-2" d="M1431.37,282.31c.38.52.4.88.08,1.08-.61-.26-.76-.95-.98-1.71-.84-2.84-2.81-4.85-4.03-7.21l-1.53-2.95c2.74,1.49,7.37,7.99,6.47,10.79Z"/>
    <path class="cls-49" d="M1754.56,174.65l2.75.49h.84c1.19.01-.99,1.8-.84,2.44.13.59,1.04,1.01,1.1,2.19.01.19-.25.39-.55.32-.38-1.02-.49-2.63-1.44-3.61-2.09-2.16-6.03,2.8-7.17,1.36,2-1.34,2.35-3.15,5.32-3.18Z"/>
    <path class="cls-4" d="M1422.25,474.66h.32c.61-.15.59.2-.05,1.05-2.31,2.32-4.79,4.93-6.47,7.8-.93.42-1.34,1.33-1.49.41l1.82-2.94c1.56-2.51,2.95-5.33,5.86-6.32Z"/>
    <path class="cls-3" d="M1652.35,244.93c4.07-.55,5.97-4.02,9.42-7.1,1.7,3.7-8.12,8.84-9.42,7.1Z"/>
    <path class="cls-23" d="M1499.65,596.07l-9.31-8.9c-.67-.64-1.16-1.35-1.2-2.1.34-.13.67-.3.97-.52,2.69,3.7,8.35,9.33,9.54,11.52Z"/>
    <path class="cls-98" d="M1472.11,358.73c-2.56-3.89-4.23-8.66-6.59-12.69-.21-.46,0-.63.55-.55,1.72,4.63,5.76,6.97,6.04,13.24Z"/>
    <path class="cls-33" d="M1440.29,295.61l-4.99-6.72c-1.48-1.48-2.87-3.08-3.85-4.95-.02-.18-.03-.37,0-.55.05-.34-.18-.76-.08-1.08,1.58,1.64,2.91,3.54,4.52,5.48.97,1.17,1.09,3.01,2.62,3.94,1.43.87,1.55,2.64,1.78,3.88Z"/>
    <path class="cls-35" d="M1468.69,548.8c-.18.15-.33.34-.43.56-1.18-1-2.17-2.41-3.85-2.26-.49.04-1.42.86-1.61.11,1.06-.75,1.61-2.99,3.26-3.38,2.04.82,1.57,3.65,2.63,4.97Z"/>
    <path class="cls-73" d="M1373.72,535.04c-2.32,2.38-4.5,5.59-5.46,4.43,1.15-1.57,2.1-3.3,4.03-4.83,1.31-1.04,2.01-2.88,3.67-3.34-.78,1.1-1.29,2.77-2.23,3.74Z"/>
    <path class="cls-63" d="M1650.83,336.09c-2.01,5.15-.96,2.34-2.69,3.51-1.88,1.27-3.36,2.77-5,4.01-.46-.56-.12-1.35,1.02-2.36,3.43-2.97,5.14-2.61,5.46-5.01.51-.76.93-1.18,1.21-.14Z"/>
    <path class="cls-48" d="M1459.51,334.11c-.05.48-.2.44-.45-.04l-1.53-4.22c-.83-2.28-1.28-4.42-2.46-6.36-.4-.49-.67-.9,0-1.09,2.53,1.21,2.66,3.81,2.91,6.55.17,1.81,2.13,3.33,1.52,5.15Z"/>
    <path class="cls-5" d="M1536.78,462.57c-.09,2.58-3.86,5.88-5.86,7.06l-.55-.13c-.25-1.11,1.12-2.2,2.17-2.64.52-1.51,2.66-4.97,4.25-4.79l-.02.51Z"/>
    <path class="cls-119" d="M1710.04,202.73l.07.3-6.08,4.51c-.53.18-.71,0-.53-.53,1.42-2.52,3.51-4.58,6.54-4.28Z"/>
    <path class="cls-31" d="M1466.07,345.49c-.16.2-.35.39-.55.55-1.47-2.5-3.59-4.75-4.54-7.65-.18-.5-.15-.88.07-1.12,1.13-.63,3.85,7.95,5.02,8.22Z"/>
    <path class="cls-43" d="M1695.69,271.3c.25,1.8-.59,3.57-2.76,3.78-1.21.12-2.32.12-3.33.02-.27.99-.65.9-.87-.09-.23-2.73,3.18.02,5.08-1.53.59-.48,1.93-5.46,1.88-2.18Z"/>
    <path class="cls-75" d="M1368.79,646.07c-.13,1.53-1.72,2.39-2.21,3.79-.23.64-.77,1.15-1.13,1.71-.86.15-.87-.18-.04-1.01.45-3.61,2.85-5.44,5.1-7.65,1.07.95-1.49.59-1.71,3.16Z"/>
    <path class="cls-41" d="M1405.08,410.88c-1.59-.95-4.55-6.86-3.92-8.91.11-.34.3-.25.51-.05,1.02,2.65,3.11,6.48,3.41,8.96Z"/>
    <path class="cls-95" d="M1643.14,343.61c-.45,1.51-2.31,1.98-3.13,3.11l-1.32-.17c1.28-2.26,3.54-3.64,5.47-5.3-.39.76-.78,1.54-1.02,2.36Z"/>
    <path class="cls-17" d="M1524.24,540.02c-1.51-2.86-.77-6.2-1.09-9.34.71.09,1.18.71,1.17,1.63l-.08,7.71Z"/>
    <path class="cls-106" d="M1428.77,468.01v.68c-1.74,2.65-3.8,4.63-6.2,5.97h-.32c1.59-3.58,4.09-3.45,5.35-7.18l1.17.53Z"/>
    <path class="cls-82" d="M1489.82,398.93c-.09.3.06.73-.09,1.02-.42.84-1.16,1.49-2.12,1.94-.64-2.35-1.05-4.31-1.22-6.39,1.12.57.89,1.95,1.29,3.27.24.8,1.67.51,2.14.16Z"/>
    <path class="cls-115" d="M1581.48,406.43c-.77,1.17-.91,2.38-1.03,3.72l-.29,3.4c-.09,1.05-.85,1.61-1.54,1.85l-.66-.03c4.07-7.44-.26-6.66,3.51-8.94Z"/>
    <path class="cls-121" d="M1513.7,599.35c.71.74-5.6,3.18-4.5,3.03-.39.05-.55-.58-.8-.8,1.31-1.49,3.15-2.13,5.03-2.64.42-.22.49-.07.27.41Z"/>
    <path class="cls-103" d="M1689.6,275.09c-.8.77.14,1.44.58,2.32.61,1.2-.12,2.62.08,3.78-.32.24-.79.33-1.07.63.54-2.3-.27-4.51-.46-6.82l.87.09Z"/>
    <path class="cls-39" d="M1753.97,191.11v-1.21c-.09-1.32,1.62-2.08,2.79-2.04.15-1.03.34-1.39,1.07-.57,1.17,2.25-2.21,3.05-3.86,3.82Z"/>
    <path class="cls-109" d="M1616.1,275.15c-1.38,1.62-2.53,3.26-4.44,4.4l.1-1.04c-.18-.69.54-1.26,1.09-1.68,1.15-.22,1.98-1.71,3.26-1.68Z"/>
    <path class="cls-13" d="M1728.65,222.14c-.95.18-2.43.16-3.22.8.07-.76.46-2.14,1-2.9,1.06-.35,2.12,1.19,2.22,2.11Z"/>
    <path class="cls-62" d="M1704.04,207.55c.09.13,0,.4.01.56-.58.05-1.42.25-1.83.91-.85,1.36-2.15,1.69-3.16,2.44-.89-.03,4.24-4.78,4.45-4.45.13.22.36.35.53.53Z"/>
    <path class="cls-21" d="M1298.07,616.36c-.07.14-.01.36-.11.47.51,1.03-1.7,3.23-2.81,3.27l-1.09.17c.77-1.71,2.15-3.48,4.02-3.92Z"/>
    <path class="cls-93" d="M1385.29,248.78c-.5.84-2.25.69-3.3.55-.8.12-1.92.06-2.75,0v-1.1c2.01,0,4.27-.5,6.04.55Z"/>
    <path class="cls-14" d="M1461.05,337.27l-.07,1.12c-.49-1.48-1.36-2.8-1.91-4.32.15.03.31,0,.45.04,1.38.39,1.62,1.85,1.53,3.16Z"/>
    <path class="cls-71" d="M1292.42,670.25c1.11-.06,2.36.67,3.3,1.1h-1.1c-1.85,0-3.94.63-5.5-.55-.48-.16-.47-.34,0-.55h3.3Z"/>
    <path class="cls-93" d="M1411.68,427.34c-.81.11-1.51-.34-1.62-.91-.16-.84.07-1.4.13-2.01,1.29-.36,1.7,1.91,1.49,2.92Z"/>
    <path class="cls-66" d="M1286.34,668.42c.18-.03.39.08.58.09.45.52,1.01.91,1.66,1.19.43.04.61.23.55.55v.55c-1.71.23-3.44-.44-3.85-2.2l1.06-.18Z"/>
    <path class="cls-20" d="M1356.71,248.78c.27,0,.5.32.55.55-2.24-.12-4.43.42-6.59.08.02-.32.25-.55.55-.62,1.66-.46,3.93-.46,5.5,0Z"/>
    <path class="cls-105" d="M1385.29,248.78c.47.28.94.55,1.1,1.12-1.09-.13-2.21.04-3.3-.03-.32.41-.71.36-1.1,0v-.55c1.05-.42,2.12-.75,3.3-.55Z"/>
    <path class="cls-28" d="M1732.58,221.3c-.08.48-.03.94-.51,1.41-.44.44-.79.07-1.14-.32l1.17-2.85c.27.49.58,1.13.47,1.76Z"/>
    <path class="cls-64" d="M1515.44,598.72c-.58.21-1.11.56-1.74.63-.12-.12-.2-.26-.27-.41.38-.89,1.21-1.39,2.04-1.8-.24.44,0,1.12-.04,1.58Z"/>
    <path class="cls-93" d="M1666.29,234.49c-.03.58-.34,1.19-.9,1.7-.33.3-1.16.94-1.41,0,.15-.55.28-1.08.56-1.37.5-.52,1.32-.25,1.75-.33Z"/>
    <path class="cls-93" d="M1356.71,248.23v.55h-5.5c-.04-.44.49-.56,1.07-.56h4.43Z"/>
    <path class="cls-93" d="M1416.58,439.44c-.74.14-1.07-.33-1.11-.79-.06-.62.19-1.09.09-1.52.44.16.82.43,1.1.87s.99,1.44-.08,1.45Z"/>
    <path class="cls-93" d="M1408.04,418.54c-.62-.06-1.1-.45-1.24-.88-.2-.58.21-1.07.09-1.47,1.11,0,1.43,1.5,1.15,2.35Z"/>
    <path class="cls-19" d="M1455.08,322.41v1.09c-1.11-.52-1.18-1.82-1.65-2.74h.55c.2.55,1.1.93,1.1,1.65Z"/>
    <path class="cls-111" d="M1521.51,367.91c-.46,1.22-5.95,7.35-5.41,5.19,1.74-1.79,3.36-3.78,5.41-5.19Z"/>
    <path class="cls-67" d="M1546.89,449.98l-.07.38c-.14.5-.81.79-1.09,1.12-.17.05-.37.02-.52.09-.15-1.04,1.28-1.12,1.69-1.6Z"/>
    <path class="cls-102" d="M1690.28,219.66c.34-.94,1.32-1.29,2.19-1.66-.7,1.06-.56,1.39-2.19,1.66Z"/>
    <path class="cls-93" d="M1735.91,186.28c-.5.17-.95,1.24-1.65.63l1.06-1.32.59.7Z"/>
    <path class="cls-44" d="M1757.83,187.29c-.37.16-.73.35-1.07.57-1.64.15-1.39-.87-.12-1.61l.66-.67c0,.52.31,1.29.52,1.7Z"/>
    <path class="cls-93" d="M1483.65,384.5c-.07.57.31,1.26-.4,1.72-.32-1.4-1.44-2.27-.79-3.36,1.12-.13.77,1.24,1.19,1.65Z"/>
    <path class="cls-45" d="M1612.84,276.83c-.29.61-.63,1.19-1.09,1.68l-.64.03c.38-.85.68-1.51,1.73-1.71Z"/>
    <path class="cls-91" d="M1757.3,175.14c-.91-.07-2.14.36-2.75-.49.95,0,2.06-.38,2.75.49Z"/>
    <path class="cls-93" d="M1412.36,430.16c-.53-.49-.91-.88-.62-1.69.31.1.58.29.76.53.26.36.54,1.15-.14,1.17Z"/>
    <path class="cls-111" d="M1524.31,365.27c-.09-.97.83-1.4,1.65-1.65-.34.99-.64,1.26-1.65,1.65Z"/>
    <path class="cls-18" d="M1318.51,594.71c7.6-5.69,14.25-13.04,20.15-20.65h.57c.11.45.25.96-.28,1.48l-17.86,17.87c-.83.83-1.56,1.42-2.59,1.3Z"/>
    <path class="cls-52" d="M1702.9,253.17c-.44,0-.42-.36.07-1.1l3.84-4.34c2.81-3.18,5.61-6.33,9.16-8.26l.5.51c-3.94,4.77-8.49,9.14-13.05,13.33-.07.07-.28-.01-.53-.14Z"/>
    <path class="cls-54" d="M1587.59,402.57c3.85-3.58,7.71-7.08,10.9-11.27,2.24,1.24-4.15,6.83-5.09,7.89-1.64,1.86-3.49,3.18-5.81,3.38Z"/>
    <path class="cls-34" d="M1442.31,570.18c-.25.06-.37.59-.58.74-.73.51-1.16,1.45-1.76,2.31-2.52,3.6-6.21,6.01-9,8.99-.77.73-1.04.43-.52-.52l11.33-12.4c1.03-.5,1.28-.02.53.89Z"/>
    <path class="cls-118" d="M1702.9,253.17l.16.51-7.38,7.56-.32,2.45c-.2.38-.46.72-.74,1.04-1.32.26-2.78.96-4.13-.69,4.89-3.63,8.75-7.74,12.48-11.96l-.07,1.1Z"/>
    <path class="cls-55" d="M1738.1,204.85c-.59.33-1.34,1.52-1.67,2.1-.75.41-1.32.95-1.72,1.7-1.57.88-2.69,2.44-3.78,3.81,0,1.63-.35,2.54-1.08,2.76-.7-.47-1.01-1.26-1.12-1.9-.37-2.08,7.27-7.89,8.71-9.1.91-.61,1.22-.31.67.63Z"/>
    <path class="cls-47" d="M1610.04,381.25c-.23.05-.55.24-.74.16-.29-.12-.18-.55-.18-.74,4.08-2.81,7.51-6.62,10.76-10.41,1.34,1.75-8.35,10.64-9.84,10.99Z"/>
    <path class="cls-50" d="M1335.31,674.11c-.1.13-.36.59-.57.54l-2.89.81-23.99-.08c-1.72.15-2.83-.28-3.35-1.27,1.22-.37,2.47.51,3.89.51l22.45-.02c1.6,0,3.05-.94,4.46-.48Z"/>
    <path class="cls-80" d="M1422.6,591.16c-3.83,4.09-7.69,8.15-11.95,12.19-.22.43-.8.6-.7-.03l12.07-12.68c.63-.37.88-.14.58.52Z"/>
    <path class="cls-9" d="M1381.99,249.88c.36,0,.73-.02,1.1,0,.07.14-.21.61-.6.6l-28.56-.34,28.06-.27Z"/>
    <path class="cls-36" d="M1568.44,424.14c-.39-.17-.4-.37-.04-.61,3.49-1.78,6.38-4.33,9.15-7.07-.86,4.04-5.11,6.87-9.11,7.67Z"/>
    <path class="cls-120" d="M1430.97,582.22l-8.37,8.94c-.39.12-.59-.16-.58-.52l8.42-8.95.52.52Z"/>
    <path class="cls-40" d="M1536.8,462.05c-1.77,1.2-1.08,1.54-4.25,4.79-.6.55-.94.56-1.01.05,1.57-2.3,3.2-4.75,5.37-6.51.03.56-.09,1.11-.11,1.67Z"/>
    <path class="cls-86" d="M1365.45,651.57c-1.31,2.06-3.58,3.35-6.02,3.3,1.96-1.47,3.94-2.94,5.98-4.31-.04.33,0,.68.04,1.01Z"/>
    <path class="cls-68" d="M1422.52,475.71l.05-1.05c2.19-.95,4.57-5.57,6.18-5.97-.04,2.14-5.35,6.13-6.23,7.02Z"/>
    <path class="cls-26" d="M1354.35,659.3c-1.79,1.74-4.1,2.49-6.45,3.27,1.55-1.63,3.53-2.79,5.52-3.81,1.06-.46,1.44-.61.93.54Z"/>
    <path class="cls-122" d="M1300.58,615.41c-1.77,2.5-3.87,5.03-6.5,6.61.42-.48.63-1.39,1.07-1.91l2.81-3.27c.81-.39,1.92-.91,2.61-1.42Z"/>
    <path class="cls-15" d="M1637.52,347.03c-.4,1.73-2.51,2.3-3.21,3.81-1.27.84-1.47.22-.55-.96.49-.99,1.11-1.95,1.95-2.97.71-.5,1.4-.37,1.81.12Z"/>
    <path class="cls-53" d="M1742.37,200.98c-1.15,1.08-3.03,3.18-4.27,3.87-.21-.23-.43-.44-.67-.63l4.55-3.82c.56-.1.69.1.39.58Z"/>
    <path class="cls-117" d="M1532.55,466.85c-.72.74-1.27,2.07-2.17,2.64-.96.61-1.7,1.85-2.78,1.88,1.05-1.65,2.28-3.42,3.95-4.47l1.01-.05Z"/>
    <path class="cls-96" d="M1695.37,263.69c.15-.44-.63-2.05-.02-2.68l7.56-7.84c1.71-1.77,12.75-11.1,13.07-13.7.61-.33.84-1.55,1.75-1.57-.28.85-.14,1.85-.99,2.71l-20.56,20.67c-.71.71-.17,1.88-.81,2.42Z"/>
    <path class="cls-87" d="M1544.1,452.06c-1.17,1.57-2.93,2.59-4.4,3.89.65-2.14,1.99-4.15,4.4-3.89Z"/>
    <path class="cls-70" d="M1742.37,200.98c-.1-.22-.23-.41-.39-.58,2.62-2.21,4.81-5.12,7.65-7.15-.01,1.08-.95,1.8-1.82,2.62l-5.44,5.11Z"/>
    <path class="cls-2" d="M1435.29,288.89c-1.71-1.26-3.59-2.76-3.85-4.95,1.62,1.4,2.64,3.32,3.85,4.95Z"/>
    <path class="cls-25" d="M1634.31,350.84c-.64,1.39-1.81,1.87-2.85,2.86.37-1.47,1.16-2.83,2.3-3.82-.08.42.11.85.55.96Z"/>
    <path class="cls-120" d="M1442.31,570.18c-.13-.32-.31-.62-.53-.89.72-.79,1.16-2.05,2.39-2.3-.64.87-.2,2.93-1.87,3.19Z"/>
    <path class="cls-57" d="M1292.42,670.25c-.97.73-2.23.78-3.3,0-.17-.13-.47-.35-.55-.55,1.31-.13,2.59.17,3.85.55Z"/>
    <path class="cls-58" d="M1650.83,336.09c-.4.09-.8.13-1.21.14.13-.94.82-1.56,1.13-2.37.83.39.53,1.58.08,2.22Z"/>
    <path class="cls-61" d="M1304.51,674.1c.78.61,2.08,1.06,3.35,1.06h23.53c1.24.01,2.3-.78,3.34-.51-.38.6-1.21,1.13-2.22,1.13l-25.55-.19c-1.67-.01-3.4-.55-3.6-2.05.51.1.76.26,1.15.57Z"/>
    <path class="cls-11" d="M1568.44,424.14c-.86.7-1.8,1.39-2.91,1.61.54-1.34,1.68-1.62,2.87-2.22.05.14.19.49.04.61Z"/>
    <path class="cls-12" d="M1512.77,491.11c-.83-1.77-.12-2.28.55-3.3-.13,1.09.49,2.6-.55,3.3Z"/>
    <path class="cls-70" d="M1730.46,215.86c-.14-.22-.41-.5-.62-.64.76-.78.39-1.89,1.08-2.76-.08,1.12.52,2.63-.46,3.4Z"/>
    <path class="cls-60" d="M1355.61,657.55c.05.94-.74,1.24-1.27,1.75-.16-.37-.55-.52-.93-.54.64-.33,1.35-1.24,2.2-1.21Z"/>
    <path class="cls-29" d="M1336.93,300.98c-1.58.39-1.83-.45-2.77-1.14.96.28,2.1.32,2.77,1.14Z"/>
    <path class="cls-37" d="M1288.57,669.7c-.4.04-.86.09-1.31-.06s-.42-.72-.35-1.13c.77.04,1.39.48,1.66,1.19Z"/>
    <path class="cls-112" d="M1523.18,574.63c.16-.91-.39-2.23.59-2.75-.11.91.45,2.29-.59,2.75Z"/>
    <path class="cls-85" d="M1756.76,187.86c-.39,1.21-1.56,1.9-2.79,2.04l-.6.07c-.32.12-.82-.06-.84-.33-.09-1.55,2.82-3,4.1-3.39l.12,1.61Z"/>
    <path class="cls-70" d="M1736.43,206.95c-.42.73-.94,1.27-1.72,1.7-.02-.4.07-.8.3-1.1.35-.45.88-.63,1.42-.6Z"/>
  </g>
  <g>
    <polygon points="313.5 326.48 227.13 110.66 138.07 322.58 135.12 326.48 129.53 323.1 226.02 94.8 320 321.22 313.5 326.48"/>
    <path d="M339.38,322.03v-6.74c20.26,3.12,38.88,11.07,59.94,8.82,58.34-6.19,79.44-78.82,28.44-112.02-13.24-8.62-53.89-20.49-57.86-33.01-13.03-41.16,37.15-37.29,62.03-30.25,5.05,1.42,25.18,9.11,27.3,12.38,9.82,15.21-23.72-3.61-26.12-4.47-17.36-6.13-70.04-12.53-56.21,19.89,3.9,9.13,41.5,21.41,53.14,28.62,34.67,21.51,44.77,61.16,21.55,96.16-24.87,37.49-74.49,33.15-112.21,20.6h0Z"/>
    <path d="M406.78,273.64c24.11-21.99-26.11-34.98-38-41.2-19.32-10.09-41.94-27.02-45.13-50.28-11.77-85.9,83.54-98.58,142.89-66.78.06,12.7-18.92-.36-27.8-2.89-38.04-10.88-86.18-11.25-104,31.2-12.04,28.7-2.33,55.74,22.04,73.48,16.4,11.95,61.2,21.03,62.2,42.47,1.54,32.89-42.78,29.16-63.71,20.39-8.93-3.76-17.66-11.24-2.85-8.55,15.52,2.82,40.15,15.11,54.33,2.18h.01Z"/>
    <polygon points="122.66 101.57 119.25 108.39 6.81 108.39 6.81 328.76 0 328.76 0 101.57 122.66 101.57"/>
    <path d="M545.16,144.74c-.74,2.23,2.28,4.92,2.28,5.68v174.93l-3.44,3.4-5.65-3.4v-173.79h-54.52l3.4-6.81h57.93Z"/>
    <polygon points="645.1 144.74 645.1 151.55 590.59 151.55 590.59 328.76 583.77 328.76 583.77 148.14 587.19 144.74 645.1 144.74"/>
    <polygon points="122.66 151.55 52.24 151.55 52.24 190.18 102.22 190.18 98.8 196.99 48.84 196.99 45.43 193.58 45.43 148.14 48.84 144.74 119.25 144.74 122.66 151.55"/>
    <path d="M645.1,101.57c.48,7.23-4.97,6.5-10.1,6.93-46.98,3.91-99.84-2.83-147.37-.51l-3.8-6.43h161.27Z"/>
    <polygon points="102.22 240.15 55.65 240.15 52.24 243.55 52.24 328.76 45.43 328.76 45.43 236.74 48.84 233.34 98.8 233.34 102.22 240.15"/>
    <path d="M179.45,326.47c1.04-9.35,3.98-26.15,14.62-27.37,20.09-2.3,45,1.64,65.64.48,3,1.04,12.95,21.37,12.79,23.52-.11,1.58-3.61,4.38-6.83,2.32-4.65-2.99-4.25-16.87-10.51-19.02-10.63.92-58.16-3.43-63.31,1.84-4.27,4.37-2.9,18.57-12.42,18.22h.01Z"/>
    <path d="M245.32,260.6h-40.89c1.37-12.51,22.58-4.77,31.8-6.84,1.66-1.2-17.83-32.35-12.48-38.63,12.38,9.62,15.79,31.2,21.55,45.45h.01Z"/>
  </g>
  <path d="M1150.48,360.53l45.77,124.77,49.18-124.77h71.63v235.68h-58.68v-130.32l-37.12,97.03c-5.24,7.06-38.28.87-47.19,2.33l-36.52-96.58v127.54h-60.42v-231.51l2.59-4.15h70.78-.01Z"/>
  <path d="M775.69,501.88l23.97-21.06c22.85-48.23,7.55-96.67-26.67-111.84-27.37-12.14-119.13-14.14-148.44-8.62-2.5.47-4.44.34-5.95,4.31v231.52h69.04v-61h35.4c13.81,0,15.72,45.14,18.12,61h69.04c-7.77-34.12-5.63-88.6-34.51-94.31h0ZM741.39,452.6v21.61h-53.75v-42.98c1.1-2.75,2.38-3.59,4.32-4.15,4.6-1.35,16.35-1.52,26.93,0h22.49v17.29c.3,2.65.27,5.45,0,8.25h0Z"/>
  <path d="M468.7,360.55c-21.64,2.01-53.82,8.29-67.22,38.97-10.58,24.19-8.62,65.23,5.89,84.46l20.74,17.93c-28.88,7.54-24.47,60.83-34.51,94.31h69.04c4.18-13.2,4.01-40.15,8.82-50.97,1.49-3.36,9.29-10.03,11.03-10.03h33.66v61h69.04v-235.68c-38.31,2.6-78.37-3.5-116.5.03h.01ZM505.36,474.15c-.16.03-.33.04-.48.04h-42.22v-47.15h38.78c.14,0,.28.01.44.03,4.68.5,13.47,10.09,14.3,18.14,1.02,9.8-5.29,28.04-10.81,28.94Z"/>
  <path d="M909.68,360.53v137.24c0,1.1,3.53,13.06,4.4,15.12,8.98,21.24,37.76,23.47,48.33,5.8,3.02-5.04,7.68-22.98,7.68-29.24v-128.92h66.45l2.59,4.15v133.09c0,20.51-9.23,57.86-18.95,72.14-29.69,43.65-127.33,43.8-157.94,4.03-9.5-12.35-21.62-45.71-21.62-65.09v-148.34h69.07Z"/>
  <polygon points="355.58 360.53 355.58 427.06 262.38 427.06 262.38 452.02 346.96 452.02 346.96 501.92 262.38 501.92 262.38 532.43 359.04 532.43 359.04 596.19 193.33 596.19 193.33 360.53 355.58 360.53"/>
  <polygon points="160.53 360.53 160.53 427.06 69.04 427.06 69.04 460.34 151.9 460.34 151.9 518.55 69.04 518.55 69.04 596.19 0 596.19 0 360.53 160.53 360.53"/>
</svg>