<?xml version="1.0" encoding="UTF-8"?>
<svg id="Layer_1" data-name="Layer 1" xmlns="http://www.w3.org/2000/svg" viewBox="0 0 1049.19 281.9">
  <defs>
    <style>
      .cls-1 {
        fill: #f16574;
      }

      .cls-2 {
        fill: #05689a;
      }
    </style>
  </defs>
  <g>
    <polygon class="cls-2" points="173.82 128.45 125.93 8.79 76.55 126.29 74.92 128.45 71.82 126.58 125.31 0 177.42 125.54 173.82 128.45"/>
    <path class="cls-2" d="M188.16,125.98v-3.74c11.23,1.73,21.55,6.13,33.23,4.89,32.35-3.43,44.05-43.7,15.77-62.11-7.34-4.78-29.88-11.36-32.08-18.3-7.23-22.82,20.59-20.67,34.39-16.77,2.8.79,13.96,5.05,15.13,6.87,5.44,8.43-13.15-2.01-14.48-2.48-9.62-3.4-38.83-6.95-31.17,11.03,2.16,5.06,23.01,11.87,29.46,15.87,19.22,11.93,24.82,33.91,11.95,53.31-13.79,20.79-41.3,18.38-62.21,11.42Z"/>
    <path class="cls-2" d="M225.53,99.16c13.37-12.19-14.47-19.4-21.07-22.84-10.71-5.59-23.26-14.98-25.02-27.88C172.92.82,225.76-6.21,258.67,11.41c.03,7.04-10.49-.2-15.41-1.6-21.09-6.03-47.78-6.24-57.66,17.3-6.68,15.91-1.3,30.9,12.22,40.74,9.1,6.62,33.93,11.66,34.49,23.54.85,18.24-23.72,16.17-35.32,11.3-4.95-2.08-9.79-6.23-1.58-4.74,8.61,1.56,22.26,8.38,30.12,1.21Z"/>
    <polygon class="cls-2" points="68.01 3.75 66.12 7.53 3.78 7.53 3.78 129.71 0 129.71 0 3.75 68.01 3.75"/>
    <path class="cls-2" d="M302.26,27.69c-.41,1.24,1.26,2.73,1.26,3.15v96.99s-1.91,1.88-1.91,1.88l-3.13-1.88V31.46s-30.23,0-30.23,0l1.89-3.78h32.12Z"/>
    <polygon class="cls-2" points="357.67 27.69 357.67 31.46 327.45 31.46 327.45 129.71 323.67 129.71 323.67 29.58 325.56 27.69 357.67 27.69"/>
    <polygon class="cls-2" points="68.01 31.46 28.97 31.46 28.97 52.88 56.67 52.88 54.78 56.66 27.08 56.66 25.19 54.77 25.19 29.58 27.08 27.69 66.12 27.69 68.01 31.46"/>
    <path class="cls-2" d="M357.67,3.75c.27,4.01-2.75,3.61-5.6,3.84-26.04,2.17-55.35-1.57-81.71-.28l-2.11-3.56h89.42Z"/>
    <polygon class="cls-2" points="56.67 80.59 30.86 80.59 28.97 82.48 28.97 129.71 25.19 129.71 25.19 78.7 27.08 76.81 54.78 76.81 56.67 80.59"/>
    <path class="cls-2" d="M99.5,128.45c.57-5.18,2.21-14.5,8.11-15.18,11.13-1.28,24.95.91,36.39.27,1.67.58,7.17,11.85,7.09,13.04-.06.87-2,2.43-3.78,1.29-2.58-1.66-2.36-9.36-5.83-10.55-5.9.52-32.25-1.9-35.1,1.02-2.37,2.42-1.61,10.3-6.88,10.11Z"/>
    <path class="cls-2" d="M136.02,91.93h-22.67c.75-6.94,12.52-2.64,17.63-3.79.93-.67-9.88-17.94-6.91-21.41,6.86,5.34,8.76,17.3,11.95,25.2Z"/>
  </g>
  <path class="cls-2" d="M637.87,147.32l25.37,69.17,27.26-69.17h39.72v130.67h-32.54v-72.25s-20.58,53.79-20.58,53.79c-2.9,3.91-21.23.48-26.16,1.3l-20.25-53.55v70.71h-33.5v-128.36s1.44-2.31,1.44-2.31h39.24Z"/>
  <path class="cls-2" d="M430.08,225.71l13.29-11.68c12.67-26.74,4.19-53.6-14.79-62-15.18-6.73-66.05-7.84-82.3-4.78-1.39.26-2.46.19-3.3,2.39v128.36s38.28,0,38.28,0v-33.82h19.62c7.66,0,8.72,25.03,10.05,33.82h38.28c-4.3-18.92-3.13-49.12-19.14-52.29ZM411.06,198.38v11.98h-29.8v-23.83c.6-1.52,1.32-1.99,2.39-2.31,2.55-.75,9.06-.84,14.93,0h12.47v9.58c.17,1.46.15,3.02,0,4.57Z"/>
  <path class="cls-2" d="M259.86,147.34c-11.99,1.11-29.84,4.6-37.27,21.6-5.87,13.41-4.78,36.17,3.27,46.83l11.5,9.93c-16.01,4.18-13.57,33.73-19.14,52.29h38.28c2.32-7.32,2.23-22.26,4.89-28.26.83-1.86,5.15-5.56,6.12-5.56h18.66v33.82s38.28,0,38.28,0v-130.67c-21.25,1.44-43.45-1.94-64.6.02ZM280.19,210.33c-.09.02-.18.02-.27.02h-23.41v-26.14h21.5c.08,0,.16,0,.25.02,2.59.28,7.47,5.59,7.93,10.05.56,5.43-2.94,15.55-6,16.04Z"/>
  <path class="cls-2" d="M504.36,147.32v76.09c0,.61,1.95,7.24,2.44,8.39,4.98,11.78,20.94,13.01,26.8,3.22,1.67-2.79,4.26-12.74,4.26-16.21v-71.48h36.85s1.44,2.31,1.44,2.31v73.79c0,11.38-5.12,32.08-10.51,40-16.46,24.2-70.6,24.29-87.57,2.24-5.27-6.84-11.99-25.34-11.99-36.09v-82.24h38.28Z"/>
  <polygon class="cls-2" points="197.15 147.32 197.15 184.22 145.47 184.22 145.47 198.05 192.37 198.05 192.37 225.73 145.47 225.73 145.47 242.64 199.07 242.64 199.07 277.99 107.19 277.99 107.19 147.32 197.15 147.32"/>
  <polygon class="cls-2" points="89.01 147.32 89.01 184.22 38.28 184.22 38.28 202.67 84.22 202.67 84.22 234.95 38.28 234.95 38.28 277.99 0 277.99 0 147.32 89.01 147.32"/>
  <g>
    <path class="cls-1" d="M851.02,224.57c0,19.97-15.08,32.41-39.07,32.41h-15.32v22.99h-24.87v-87.93h40.2c23.99,0,39.07,12.44,39.07,32.53ZM825.9,224.57c0-8.16-5.15-12.94-15.45-12.94h-13.82v25.75h13.82c10.3,0,15.45-4.77,15.45-12.81Z"/>
    <path class="cls-1" d="M901.87,256.6h-13.57v23.36h-24.87v-87.93h40.2c23.99,0,39.07,12.44,39.07,32.53,0,12.94-6.28,22.49-17.21,27.76l18.96,27.64h-26.63l-15.95-23.36ZM902.12,211.63h-13.82v25.75h13.82c10.3,0,15.45-4.77,15.45-12.81s-5.15-12.94-15.45-12.94Z"/>
    <path class="cls-1" d="M951.46,236c0-26.38,20.73-45.72,48.86-45.72s48.87,19.34,48.87,45.72-20.73,45.72-48.87,45.72-48.86-19.34-48.86-45.72ZM1024.06,236c0-15.2-10.43-25.12-23.74-25.12s-23.74,9.92-23.74,25.12,10.43,25.12,23.74,25.12,23.74-9.92,23.74-25.12Z"/>
  </g>
</svg>