<?xml version="1.0" encoding="UTF-8"?>
<svg id="Layer_1" data-name="Layer 1" xmlns="http://www.w3.org/2000/svg" viewBox="0 0 925.77 357.38">
  <defs>
    <style>
      .cls-1 {
        fill: #05689a;
      }
    </style>
  </defs>
  <g>
    <polygon class="cls-1" points="220.36 162.85 159.65 11.15 97.05 160.11 94.98 162.85 91.05 160.47 158.87 0 224.93 159.15 220.36 162.85"/>
    <path class="cls-1" d="M238.55,159.72v-4.74c14.24,2.19,27.33,7.78,42.13,6.2,41.01-4.35,55.84-55.4,19.99-78.74-9.31-6.06-37.88-14.4-40.67-23.2-9.16-28.93,26.11-26.21,43.6-21.26,3.55,1,17.7,6.4,19.19,8.7,6.9,10.69-16.67-2.54-18.36-3.14-12.2-4.31-49.23-8.81-39.51,13.98,2.74,6.42,29.17,15.05,37.35,20.12,24.37,15.12,31.47,42.99,15.15,67.59-17.48,26.35-52.36,23.3-78.87,14.48Z"/>
    <path class="cls-1" d="M285.93,125.71c16.95-15.46-18.35-24.59-26.71-28.96-13.58-7.09-29.48-18.99-31.72-35.34C219.23,1.03,286.22-7.88,327.94,14.47c.04,8.93-13.3-.25-19.54-2.03-26.74-7.65-60.58-7.91-73.1,21.93-8.46,20.17-1.64,39.18,15.49,51.65,11.53,8.4,43.02,14.78,43.72,29.85,1.08,23.12-30.07,20.5-44.78,14.33-6.28-2.64-12.41-7.9-2-6.01,10.91,1.98,28.22,10.62,38.19,1.53Z"/>
    <polygon class="cls-1" points="86.22 4.76 83.82 9.55 4.79 9.55 4.79 164.45 0 164.45 0 4.76 86.22 4.76"/>
    <path class="cls-1" d="M383.2,35.1c-.52,1.57,1.6,3.46,1.6,3.99v122.96s-2.42,2.39-2.42,2.39l-3.97-2.39V39.89s-38.32,0-38.32,0l2.39-4.79h40.71Z"/>
    <polygon class="cls-1" points="453.45 35.1 453.45 39.89 415.13 39.89 415.13 164.45 410.34 164.45 410.34 37.49 412.74 35.1 453.45 35.1"/>
    <polygon class="cls-1" points="86.22 39.89 36.72 39.89 36.72 67.04 71.85 67.04 69.45 71.83 34.33 71.83 31.93 69.43 31.93 37.49 34.33 35.1 83.82 35.1 86.22 39.89"/>
    <path class="cls-1" d="M453.45,4.76c.34,5.08-3.49,4.57-7.1,4.87-33.02,2.75-70.18-1.99-103.59-.36l-2.67-4.52h113.36Z"/>
    <polygon class="cls-1" points="71.85 102.17 39.12 102.17 36.72 104.56 36.72 164.45 31.93 164.45 31.93 99.77 34.33 97.38 69.45 97.38 71.85 102.17"/>
    <path class="cls-1" d="M126.14,162.84c.73-6.57,2.8-18.38,10.28-19.24,14.12-1.62,31.63,1.15,46.14.34,2.11.73,9.1,15.02,8.99,16.53-.08,1.11-2.54,3.08-4.8,1.63-3.27-2.1-2.99-11.86-7.39-13.37-7.47.65-40.88-2.41-44.5,1.29-3,3.07-2.04,13.05-8.73,12.81Z"/>
    <path class="cls-1" d="M172.44,116.54h-28.74c.96-8.79,15.87-3.35,22.35-4.81,1.17-.84-12.53-22.74-8.77-27.15,8.7,6.76,11.1,21.93,15.15,31.95Z"/>
  </g>
  <path class="cls-1" d="M808.68,186.78l32.17,87.7,34.57-87.7h50.35v165.66h-41.25v-91.6s-26.09,68.2-26.09,68.2c-3.68,4.96-26.91.61-33.17,1.64l-25.67-67.89v89.65h-42.47v-162.73s1.82-2.92,1.82-2.92h49.75Z"/>
  <path class="cls-1" d="M545.24,286.14l16.85-14.8c16.06-33.9,5.31-67.95-18.75-78.61-19.24-8.53-83.74-9.94-104.34-6.06-1.76.33-3.12.24-4.18,3.03v162.74s48.53,0,48.53,0v-42.88h24.88c9.71,0,11.05,31.73,12.74,42.88h48.53c-5.46-23.98-3.96-62.28-24.26-66.29ZM521.13,251.5v15.19h-37.78v-30.21c.77-1.93,1.67-2.52,3.04-2.92,3.23-.95,11.49-1.07,18.93,0h15.81v12.15c.21,1.86.19,3.83,0,5.8Z"/>
  <path class="cls-1" d="M329.45,186.8c-15.21,1.41-37.83,5.83-47.25,27.39-7.44,17-6.06,45.85,4.14,59.37l14.58,12.6c-20.3,5.3-17.2,42.76-24.26,66.29h48.53c2.94-9.28,2.82-28.22,6.2-35.83,1.05-2.36,6.53-7.05,7.75-7.05h23.66v42.88s48.53,0,48.53,0v-165.66c-26.93,1.83-55.09-2.46-81.89.02ZM355.22,266.65c-.11.02-.23.03-.34.03h-29.68v-33.14h27.26c.1,0,.2.01.31.02,3.29.35,9.47,7.09,10.05,12.75.72,6.89-3.72,19.71-7.6,20.34Z"/>
  <path class="cls-1" d="M639.42,186.78v96.47c0,.77,2.48,9.18,3.09,10.63,6.31,14.93,26.54,16.5,33.97,4.08,2.12-3.54,5.4-16.15,5.4-20.55v-90.62h46.71s1.82,2.92,1.82,2.92v93.55c0,14.42-6.49,40.67-13.32,50.71-20.87,30.68-89.5,30.79-111.02,2.83-6.68-8.68-15.2-32.13-15.2-45.75v-104.27h48.53Z"/>
  <polygon class="cls-1" points="249.94 186.78 249.94 233.55 184.43 233.55 184.43 251.09 243.88 251.09 243.88 286.17 184.43 286.17 184.43 307.61 252.37 307.61 252.37 352.43 135.89 352.43 135.89 186.78 249.94 186.78"/>
  <polygon class="cls-1" points="112.84 186.78 112.84 233.55 48.53 233.55 48.53 256.94 106.77 256.94 106.77 297.86 48.53 297.86 48.53 352.43 0 352.43 0 186.78 112.84 186.78"/>
</svg>