<svg width="184" height="184" viewBox="0 0 184 184" fill="none" xmlns="http://www.w3.org/2000/svg">
<path d="M91.9372 183.789C68.39 183.789 44.8505 174.829 26.9262 156.904C9.56191 139.54 0 116.451 0 91.8932C0 67.3358 9.56191 44.2502 26.9262 26.8822C62.771 -8.96262 121.103 -8.95884 156.948 26.8822C174.316 44.2464 183.874 67.3358 183.874 91.8932C183.874 116.451 174.312 139.54 156.948 156.904C139.028 174.825 115.477 183.789 91.9372 183.789ZM91.9372 8.04595C70.4522 8.04595 48.9711 16.2192 32.6171 32.5769C16.774 48.4201 8.04456 69.4888 8.04456 91.897C8.04456 114.305 16.7702 135.374 32.6171 151.217C65.3213 183.921 118.549 183.917 151.261 151.217C167.108 135.37 175.834 114.305 175.834 91.897C175.834 69.4887 167.108 48.4201 151.261 32.5769C134.907 16.2267 113.418 8.04595 91.9372 8.04595Z" fill="white"/>
<path d="M86.0116 117.537L96.5649 59.575C96.5649 59.575 49.8489 54.0391 30.1235 60.9598C30.1235 60.9598 22.166 63.3815 22.5103 69.2655L15.4155 68.0546C15.4155 68.0546 13.1679 73.7646 15.0712 77.3971L19.9146 78.0895C19.9146 78.0895 18.5296 89.5093 19.5702 90.8941C20.607 92.2791 22.34 94.7007 25.7985 95.3933C29.257 96.0857 41.5433 111.138 41.5433 111.138C41.5433 111.138 43.4466 113.041 46.0424 113.56C48.6381 114.078 81.3385 115.981 86.0116 117.54V117.537Z" fill="white"/>
<path d="M88.1383 118.123L99.3083 60.2749C99.3083 60.2749 144.855 72.0466 160.729 85.6458C160.729 85.6458 167.267 90.7882 164.815 96.1462L171.864 97.5878C171.864 97.5878 171.891 103.725 168.799 106.419L164.032 105.307C164.032 105.307 161.183 116.451 159.714 117.366C158.246 118.282 155.756 119.909 152.279 119.3C148.802 118.691 131.899 128.268 131.899 128.268C131.899 128.268 129.436 129.35 126.829 128.896C124.222 128.438 93.0536 118.361 88.1345 118.119L88.1383 118.123Z" fill="white"/>
</svg>
