<svg width="170" height="170" viewBox="0 0 170 170" fill="none" xmlns="http://www.w3.org/2000/svg">
<path d="M161.982 71.7828L150.916 71.7209C149.266 63.2034 145.966 54.9209 141.016 47.3933L148.874 39.5646C151.695 36.7762 151.695 32.2473 148.932 29.426L140.443 20.8177C137.655 17.9964 133.126 17.9964 130.304 20.7558L122.414 28.5557C114.973 23.5153 106.694 20.0959 98.1769 18.3882L98.2388 7.28859C98.3006 3.32885 95.0916 0.119815 91.0989 0.0909409L79.0134 0.000193319C75.0537 -0.0286798 71.8447 3.18036 71.8117 7.16897L71.6921 18.2356C63.1456 19.8855 54.8343 23.1853 47.3644 28.1349L39.5646 20.2773C36.7432 17.456 32.2143 17.456 29.3971 20.2155L20.8466 28.7041C17.9964 31.4925 17.9964 36.0214 20.7558 38.8427L28.5557 46.7333C23.5153 54.1743 20.0958 62.4196 18.3882 70.9702L7.28859 70.8795C3.32885 70.8506 0.119815 74.0596 0.0909373 78.0482L0.000193273 90.1378C-0.0286764 94.0687 3.18036 97.3066 7.16897 97.3354L18.2356 97.4262C19.9144 105.948 23.1853 114.226 28.1638 121.754L20.2732 129.554C17.4519 132.342 17.4519 136.871 20.2113 139.721L28.7 148.301C31.4883 151.151 36.0173 151.151 38.8386 148.391L45.6197 141.672L60.7079 106.158C49.1875 93.4706 49.6083 73.8534 61.9082 61.6731C74.567 49.1628 94.906 49.2865 107.383 61.9123C119.894 74.5422 119.803 94.9101 107.144 107.387C101.085 113.385 93.285 116.474 85.3655 116.656L70.9661 151.184L70.9042 161.863C70.8754 165.822 74.0844 169.031 78.0441 169.06L90.1337 169.122C94.0934 169.184 97.3025 165.971 97.3313 161.982L97.4221 150.911C105.944 149.233 114.222 145.962 121.75 140.983L129.55 148.874C132.371 151.695 136.9 151.695 139.717 148.936L148.325 140.447C151.147 137.659 151.147 133.13 148.387 130.28L140.587 122.422C145.628 114.952 149.047 106.703 150.755 98.1851L161.854 98.247C165.814 98.2759 169.023 95.0668 169.052 91.1071L169.143 79.0175C169.172 75.0578 165.963 71.8488 161.974 71.7869L161.982 71.7828Z" fill="white"/>
<path d="M57.0494 161.557C55.7295 161.557 54.4137 161.293 53.1598 160.769C48.0286 158.625 45.5991 152.71 47.7399 147.574L65.8474 104.224C64.4285 102.524 63.2942 100.66 62.4817 98.6718C60.2832 93.322 60.3038 87.4278 62.5394 82.078C64.775 76.7282 68.9534 72.5705 74.3031 70.3762C75.9736 69.6873 77.7679 69.213 79.6364 68.9655C80.8779 68.7922 82.1195 69.3078 82.8825 70.3019C83.6415 71.2918 83.8189 72.6241 83.3363 73.779L79.591 82.7503C79.1497 83.8104 79.1455 84.9777 79.5828 86.0336C80.02 87.0937 80.8408 87.9227 81.9009 88.3641L84.4664 89.4406C85.5265 89.8861 86.6979 89.882 87.7538 89.4489C88.8139 89.0117 89.643 88.1908 90.0884 87.1308L93.8337 78.1636C94.1925 77.3057 94.8648 76.6333 95.731 76.2786C96.0198 76.159 96.325 76.0806 96.6302 76.0435C97.8635 75.8909 99.1051 76.4147 99.8599 77.4171C100.99 78.9184 101.918 80.5312 102.603 82.2017C104.801 87.5515 104.781 93.4457 102.545 98.7955C100.309 104.145 96.1312 108.303 90.7814 110.497C88.7933 111.314 86.6732 111.821 84.4664 112.003L66.3589 155.354C65.3194 157.841 63.3726 159.775 60.8854 160.798C59.6479 161.306 58.3528 161.561 57.0535 161.561L57.0494 161.557ZM80.1107 70.7391C80.0365 70.7391 79.9581 70.7432 79.8797 70.7556C78.1598 70.9866 76.514 71.4197 74.9878 72.0467C64.8451 76.2126 59.9821 87.8526 64.148 97.9953C64.9565 99.9669 66.1114 101.807 67.5716 103.469L67.9428 103.894L49.4022 148.272C47.6409 152.487 49.6373 157.35 53.8527 159.111C55.8903 159.961 58.1424 159.969 60.1966 159.132C62.2424 158.291 63.8387 156.703 64.6925 154.661L83.2332 110.279L83.7941 110.246C86.0008 110.118 88.121 109.644 90.0967 108.831C95.001 106.818 98.8287 103.003 100.883 98.0984C102.933 93.19 102.953 87.7866 100.936 82.8823C100.31 81.3562 99.4598 79.8795 98.4163 78.4936C98.0533 78.0028 97.4428 77.7511 96.8447 77.8254C96.6963 77.8419 96.5519 77.879 96.4116 77.9368C95.9909 78.11 95.6651 78.4359 95.4918 78.8524L91.7466 87.8237C91.1155 89.3251 89.94 90.4924 88.4386 91.1112C86.9331 91.7298 85.279 91.7257 83.7735 91.0988L81.2038 90.0222C79.7024 89.3953 78.5351 88.2197 77.9164 86.7142C77.2977 85.2087 77.3018 83.5547 77.9288 82.0491L81.674 73.0779C81.9091 72.5169 81.8225 71.8693 81.4554 71.3908C81.1337 70.9701 80.6304 70.7268 80.1107 70.7268L80.1107 70.7391ZM57.0535 154.962C55.6759 154.962 54.3683 154.145 53.8156 152.796C53.0814 151.01 53.9352 148.965 55.7212 148.23C56.5874 147.876 57.5361 147.88 58.3982 148.239C59.2603 148.597 59.9285 149.274 60.2832 150.14C60.6379 151.002 60.6338 151.955 60.2749 152.817C59.9161 153.679 59.2396 154.347 58.3776 154.702C57.9444 154.879 57.4949 154.966 57.0535 154.966V154.962ZM55.4779 152.112C55.8326 152.982 56.8308 153.39 57.697 153.036C58.1177 152.862 58.4436 152.537 58.6168 152.12C58.7901 151.699 58.7942 151.241 58.6209 150.821C58.4477 150.4 58.1218 150.074 57.7052 149.897C57.2845 149.723 56.8225 149.719 56.4059 149.893C55.9852 150.066 55.6594 150.392 55.4861 150.808C55.3129 151.229 55.3088 151.687 55.482 152.108L55.4779 152.112Z" fill="white"/>
</svg>
