<svg width="176" height="163" viewBox="0 0 176 163" fill="none" xmlns="http://www.w3.org/2000/svg">
<path d="M112.508 141.331C109.505 141.405 106.502 141.463 103.499 141.495C102.103 141.511 100.71 141.533 99.3142 141.568C97.9662 141.604 96.6216 141.623 95.2737 141.629C94.7614 141.636 94.2492 141.645 93.7337 141.664C91.0636 141.75 89.2974 141.419 88.4351 140.672C87.878 139.852 87.4682 139.055 87.0744 138.149C86.8631 137.794 86.6518 137.438 86.4373 137.073C86.2644 136.757 86.0893 136.439 85.9122 136.119C85.7137 135.761 85.5152 135.405 85.3135 135.037C85.1086 134.666 84.9016 134.29 84.6924 133.91C83.1525 131.138 81.5997 128.381 79.9829 125.653C78.3276 122.865 76.7172 120.054 75.0972 117.243C74.8795 116.865 74.6597 116.483 74.4377 116.096C74.2425 115.76 74.0503 115.421 73.8486 115.075C73.4901 114.439 73.1016 113.828 72.6832 113.241C72.1262 112.139 72.2158 111.633 72.4719 110.439C72.5455 110.065 72.6192 109.693 72.696 109.309C72.7792 108.918 72.8593 108.525 72.9457 108.121C73.0866 107.33 73.2275 106.54 73.3652 105.749C73.4388 105.329 73.5092 104.913 73.5861 104.481C73.6586 104.056 73.7334 103.628 73.8102 103.197C73.887 102.766 73.9596 102.361 74.0279 101.984C74.8667 97.0884 75.2573 92.2605 75.7728 87.2788H123.108C123.108 92.2776 122.976 96.0384 122.711 98.5612C122.667 99.0062 122.619 99.4513 122.571 99.9123C121.037 114.041 117.835 128.128 112.511 141.328L112.508 141.331Z" fill="white"/>
<path d="M123.105 74.9207H75.7697C75.3044 70.8397 74.8338 66.7182 74.3578 62.5561C73.852 59.585 73.3227 56.6193 72.7698 53.6589C72.709 53.3323 72.6513 53.0025 72.5905 52.6663C72.5041 52.2597 72.4176 51.8563 72.328 51.4369C72.2191 49.9546 72.4977 49.3751 73.2533 48.1105C73.4806 47.7199 73.7111 47.3293 73.9481 46.9259C74.2009 46.5065 74.4571 46.087 74.7132 45.6677C74.9725 45.2258 75.2351 44.7872 75.4912 44.3454C76.0259 43.4393 76.5637 42.5333 77.1016 41.6272C78.2798 39.655 79.4164 37.6572 80.5625 35.6658C80.9948 34.9167 81.427 34.1707 81.8592 33.4215C82.0737 33.0469 82.2914 32.6756 82.5123 32.2914C82.7365 31.904 82.9605 31.5166 83.191 31.1164C84.0587 29.6148 84.9263 28.1133 85.7908 26.6117C86.1397 26.0034 86.4919 25.3983 86.8441 24.79C87.0553 24.425 87.2666 24.06 87.4812 23.6854C87.6668 23.3621 87.8526 23.0387 88.0447 22.709C88.3232 22.2223 88.5889 21.7261 88.8418 21.2234H112.508C114.982 28.0983 116.535 32.6756 117.166 34.9551C117.282 35.3649 117.394 35.7715 117.512 36.1941C120.138 45.7541 121.918 55.5094 122.862 65.3799C122.888 65.6553 122.917 65.9306 122.945 66.2155C123.189 69.129 123.105 71.9688 123.105 74.9175V74.9207Z" fill="white"/>
<path d="M118.162 149.809C113.789 149.915 109.419 149.998 105.045 150.046C103.015 150.069 100.985 150.104 98.9525 150.155C96.9931 150.206 95.0305 150.232 93.0711 150.245C92.3251 150.254 91.5759 150.27 90.83 150.296C87.035 150.418 84.6488 150.11 83.6712 149.374C82.5763 148.144 82.0224 146.739 81.4237 145.218C81.0011 144.431 80.5465 143.672 80.0854 142.903C79.634 142.106 79.1826 141.312 78.7312 140.515C78.2349 139.641 77.7386 138.767 77.2392 137.896C77.1143 137.678 76.9927 137.461 76.8646 137.237C75.6832 135.165 74.4826 133.103 73.2788 131.045C71.5083 128.016 69.7411 124.984 67.9801 121.949C67.7624 121.574 67.5415 121.197 67.3175 120.809C66.7123 119.765 66.12 118.715 65.5309 117.665C65.3517 117.364 65.1724 117.06 64.9867 116.75C63.0209 113.244 63.6964 110.029 64.5833 106.274C65.2332 103.341 65.771 100.425 66.1521 97.4439C66.1937 97.1238 66.2321 96.8068 66.2737 96.477C66.389 95.5326 66.4914 94.5913 66.5907 93.6468C66.6259 93.3491 66.6579 93.0481 66.6931 92.7408C67.0613 89.0589 67.0293 85.3579 67.0325 81.66C67.0325 81.2983 67.0325 80.9397 67.0325 80.5683C67.0229 71.226 66.2129 62.0566 63.9238 52.9641C63.0145 49.3015 64.4488 46.5769 66.2353 43.4874C66.405 43.1896 66.5778 42.8918 66.7539 42.5877C67.7721 40.8204 68.7998 39.0563 69.8371 37.2987C71.1753 35.0287 72.4944 32.746 73.8103 30.4632C74.028 30.0854 74.2457 29.7077 74.4698 29.3203C75.3791 27.7419 76.2883 26.1635 77.1976 24.5851C77.6778 23.7527 78.1549 22.9203 78.6351 22.0878C79.0833 21.3099 79.5315 20.5319 79.9797 19.7507C82.445 15.4712 83.8697 13.1394 84.2539 12.7552C85.3072 12.72 86.3541 12.7104 87.4075 12.7136C87.7372 12.7136 88.0702 12.7136 88.4096 12.7136C89.5077 12.7136 90.6091 12.7136 91.7072 12.72C92.466 12.72 93.228 12.72 93.9868 12.72C95.991 12.72 97.9952 12.7264 99.9994 12.7296C102.042 12.7328 104.085 12.736 106.13 12.736C110.142 12.7392 114.157 12.7456 118.168 12.752C120.787 19.2171 122.517 23.7356 123.358 26.3076C123.486 26.6982 123.616 27.093 123.749 27.4921C128.077 40.9069 130.591 54.869 131.593 68.9176C131.612 69.1962 131.634 69.4747 131.654 69.7629C133.238 92.3982 130.232 115.411 123.137 136.939C123.006 137.336 122.875 137.736 122.74 138.146C121.396 142.106 119.776 145.955 118.168 149.812L118.162 149.809ZM115.687 143.803C116.044 143.056 116.366 142.255 116.654 141.399C116.737 141.162 116.824 140.925 116.91 140.682C117.186 139.907 117.451 139.129 117.72 138.351C117.813 138.082 117.906 137.813 118.002 137.538C123.128 122.73 126.064 107.436 127.133 91.8091C127.171 91.2424 127.216 90.6757 127.261 90.1058C127.322 89.315 127.37 88.5242 127.415 87.7334C127.444 87.2788 127.476 86.8274 127.504 86.3567C127.347 85.1625 127.155 84.5831 126.272 83.7635C124.594 82.8734 122.497 83.1583 120.643 83.1744C120.134 83.1744 119.625 83.1712 119.116 83.168C117.736 83.1616 116.356 83.168 114.977 83.1744C113.533 83.1808 112.085 83.1744 110.642 83.1744C108.215 83.1744 105.788 83.1776 103.361 83.1872C100.557 83.2 97.7519 83.2 94.9473 83.1936C92.2483 83.1872 89.5494 83.1904 86.8504 83.1936C85.7011 83.1936 84.5549 83.1936 83.4055 83.1936C82.0544 83.1936 80.7002 83.1936 79.3491 83.2064C78.8528 83.2064 78.3566 83.2064 77.8603 83.2064C77.1816 83.2064 76.506 83.2096 75.8273 83.216C75.4495 83.216 75.0685 83.216 74.678 83.216C73.3941 83.4401 72.8018 83.8915 71.8893 84.8072C71.6781 85.5905 71.5596 86.4304 71.534 87.3268C71.518 87.5734 71.4988 87.8231 71.4828 88.076C71.4475 88.6075 71.4123 89.1389 71.3835 89.6736C71.3035 91.0759 71.1978 92.475 71.0922 93.8773C71.0708 94.1569 71.0506 94.4408 71.0313 94.7289C70.6408 99.8771 69.8787 105.07 68.5405 110.061C68.0442 112.482 68.6045 113.804 69.8147 115.85C69.9727 116.123 70.1317 116.4 70.2918 116.679C70.82 117.598 71.3547 118.51 71.8925 119.426C72.2768 120.086 72.6578 120.745 73.0419 121.405C73.8679 122.826 74.6972 124.244 75.5264 125.66C76.8647 127.946 78.1869 130.244 79.5092 132.54C81.2381 135.54 82.9701 138.536 84.7182 141.527C84.9103 141.86 85.1024 142.193 85.3009 142.532C85.478 142.835 85.6573 143.14 85.8387 143.448C85.9924 143.713 86.1493 143.979 86.3094 144.251C86.5634 144.693 86.9379 145.013 87.4331 145.212C88.2784 145.253 89.1108 145.273 89.956 145.276C90.2164 145.278 90.4789 145.28 90.7436 145.282C91.6048 145.289 92.4661 145.292 93.3273 145.298C93.6218 145.298 93.9164 145.298 94.2173 145.301C95.7733 145.308 97.3261 145.314 98.8821 145.317C100.489 145.321 102.097 145.333 103.704 145.346C104.939 145.356 106.172 145.359 107.408 145.359C108 145.359 108.593 145.365 109.185 145.372C110.014 145.381 110.843 145.381 111.672 145.378C111.916 145.381 112.162 145.388 112.415 145.391C114.019 145.375 114.733 145.084 115.7 143.8L115.687 143.803ZM126.944 78.1607C127.533 77.0305 127.418 76.1373 127.344 74.8726C127.331 74.6229 127.319 74.3732 127.303 74.1171C127.258 73.2942 127.2 72.4746 127.146 71.655C127.127 71.3701 127.111 71.0883 127.091 70.797C126.102 55.17 123.144 40.0008 118.072 25.1806C117.928 24.7548 117.781 24.329 117.631 23.8903C116.918 21.5489 115.917 19.3665 114.628 17.3431C113.779 17.2918 112.94 17.2662 112.092 17.2534C111.826 17.247 111.56 17.2438 111.288 17.2374C108.836 17.1926 106.383 17.1702 103.931 17.151C102.282 17.1382 100.637 17.119 98.9877 17.0869C97.3965 17.0549 95.8021 17.0357 94.2109 17.0293C93.6058 17.0229 92.9975 17.0133 92.3924 16.9973C90.2217 16.8607 88.1791 17.1947 86.2646 17.9994C85.7042 18.8222 85.3233 19.6034 84.9551 20.5255C84.731 20.8968 84.51 21.2682 84.2796 21.6492C84.0875 21.9886 83.8954 22.328 83.6969 22.6769C83.476 23.0643 83.255 23.4549 83.0277 23.8551C82.9125 24.0568 82.8004 24.2585 82.682 24.4666C82.1889 25.3375 81.6959 26.2083 81.1996 27.0791C80.9435 27.5306 80.6874 27.9788 80.4312 28.4302C79.173 30.6425 77.902 32.8484 76.6277 35.0543C76.4133 35.4225 76.2019 35.7939 75.981 36.1749C75.3215 37.3179 74.662 38.4608 73.9992 39.6038C73.1316 41.1054 72.2639 42.6069 71.3995 44.1084C71.0506 44.7168 70.6984 45.3219 70.3462 45.9302C70.1349 46.2951 69.9236 46.6601 69.7091 47.0347C69.5234 47.3581 69.3377 47.6815 69.1456 48.0112C67.5704 50.7806 68.9471 54.3952 69.5426 57.3759C70.6119 62.9179 71.3163 68.5335 71.598 74.1715C71.6205 74.6165 71.6428 75.0583 71.6685 75.5162C71.6844 75.9196 71.7005 76.323 71.7197 76.7392C71.9054 77.8885 72.0206 78.1415 72.9459 78.8138C73.6097 78.9206 74.3247 78.9664 75.091 78.9515C75.5392 78.9547 75.9874 78.9579 76.4517 78.9611C76.9511 78.9611 77.4474 78.9611 77.9468 78.9547C78.4718 78.9547 78.9937 78.9579 79.5188 78.9611C80.9435 78.9675 82.365 78.9675 83.7897 78.9643C84.9775 78.9643 86.1654 78.9643 87.3531 78.9643C90.1545 78.9707 92.9559 78.9675 95.7573 78.9643C98.6484 78.9611 101.543 78.9643 104.434 78.9739C106.915 78.9803 109.396 78.9835 111.877 78.9835C113.36 78.9835 114.842 78.9835 116.328 78.9899C117.72 78.9963 119.116 78.9931 120.509 78.9899C121.021 78.9899 121.533 78.9899 122.046 78.9931C122.744 78.9963 123.442 78.9931 124.139 78.9867C124.53 78.9867 124.921 78.9867 125.324 78.9867C125.988 78.9269 126.528 78.6527 126.944 78.1639L126.944 78.1607Z" fill="white"/>
<path d="M108.669 8.90685C108.381 8.90685 108.091 8.90685 107.799 8.90685C107.472 8.90685 107.149 8.90685 106.812 8.90685C106.46 8.90685 106.105 8.90366 105.74 8.90045C105.381 8.90045 105.02 8.90045 104.648 8.90045C103.492 8.90045 102.337 8.89406 101.181 8.89085C100.4 8.89085 99.6185 8.88765 98.8372 8.88445C96.9163 8.88124 94.9986 8.87485 93.0776 8.86844V0.0384195C95.386 0.0288208 97.6943 0.0224158 99.9995 0.019215C100.784 0.019215 101.571 0.0160108 102.356 0.01281C103.483 0.00960928 104.61 0.00640501 105.737 0.00640501C106.091 0.00640501 106.449 0.00427119 106.809 0C107.136 0 107.459 0 107.795 0C108.083 0 108.374 0 108.666 0C109.106 0.0277468 109.443 0.160083 109.678 0.397001C109.713 0.995702 109.723 1.5976 109.726 2.1963C109.726 2.55915 109.726 2.92626 109.726 3.29766C109.726 3.68185 109.726 4.06284 109.723 4.45663C109.723 4.84082 109.723 5.22181 109.726 5.61561C109.726 5.98059 109.726 6.34237 109.726 6.71696C109.726 7.05313 109.726 7.3893 109.726 7.73507C109.668 8.70836 109.639 8.84923 108.666 8.91006L108.669 8.90685Z" fill="white"/>
<path d="M109.684 162.174H93.0808V153.696H109.684V162.174Z" fill="white"/>
<path fill-rule="evenodd" clip-rule="evenodd" d="M40.0143 120.22C18.4836 98.6894 18.4836 63.7791 40.0143 42.2484C41.6696 40.5931 41.6696 37.907 40.0143 36.2518C38.3591 34.5966 35.673 34.5966 34.0177 36.2518C9.1733 61.0962 9.1733 101.376 34.0177 126.22C35.673 127.875 38.3591 127.875 40.0143 126.22C41.6696 124.565 41.6696 121.879 40.0143 120.223V120.22Z" fill="white"/>
<path fill-rule="evenodd" clip-rule="evenodd" d="M52.0076 108.227C37.1009 93.3203 37.1009 69.1515 52.0076 54.2448C53.6628 52.5896 53.6628 49.9034 52.0076 48.2482C50.3523 46.593 47.6662 46.593 46.011 48.2482C27.7939 66.4685 27.7939 96.0065 46.011 114.224C47.6662 115.879 50.3523 115.879 52.0076 114.224C53.6628 112.568 53.6628 109.882 52.0076 108.227Z" fill="white"/>
</svg>
