<svg width="170" height="171" viewBox="0 0 170 171" fill="none" xmlns="http://www.w3.org/2000/svg">
<path d="M87.6527 15.3148C88.3648 15.3078 89.077 15.3044 89.7891 15.2975C90.1867 15.2975 90.5808 15.2906 90.9921 15.2871C92.8763 15.3251 94.6981 15.6052 96.5511 15.9267C96.9452 15.9958 97.3358 16.0615 97.7403 16.1306C111.337 18.599 123.578 25.0222 133.462 34.6155C133.669 34.8125 133.88 35.013 134.095 35.217C146.225 46.7843 154.228 63.6512 154.771 80.5077C154.802 81.9147 154.806 83.3183 154.802 84.7253C154.802 85.0226 154.802 85.3234 154.802 85.6276C154.778 93.5857 153.395 100.894 150.875 108.434C150.728 108.879 150.579 109.327 150.429 109.779C150.328 110.085 150.224 110.394 150.118 110.705C149.911 110.667 149.7 110.632 149.485 110.594C140.023 108.987 130.914 109.595 122.811 115.331C119.433 117.837 116.768 120.589 114.676 124.239C113.803 125.747 112.927 126.634 112.049 126.901C111.388 126.878 110.739 126.82 110.103 126.725C108.779 126.545 108.039 127.002 106.964 127.741C105.539 129.048 105.135 130.275 105.014 132.153C105.114 133.701 105.584 134.88 106.587 136.069C107.551 136.719 108.526 137.183 109.615 137.584C109.601 137.884 109.588 138.182 109.574 138.489C109.477 142.455 110.051 146.185 110.749 150.074C105.647 151.91 100.592 153.403 95.227 154.24C94.9816 154.278 94.7362 154.316 94.4872 154.357C76.6454 156.756 57.6075 152.21 43.2296 141.279C41.7223 140.09 40.2635 138.849 38.8219 137.584C38.5972 137.387 38.3725 137.193 38.1409 136.992C35.2853 134.5 32.8101 131.886 30.4939 128.879C30.1966 128.516 29.8992 128.153 29.5916 127.776C21.3534 117.547 15.2898 103.255 15.3416 89.9731C15.3416 89.5306 15.3416 89.0881 15.3451 88.6318C15.3451 88.2965 15.3486 87.9577 15.352 87.612C15.6355 87.612 15.9224 87.6108 16.2128 87.6085C18.8989 87.5947 21.5816 87.5739 24.2677 87.5428C25.6471 87.529 27.0265 87.5152 28.4093 87.5083C29.7437 87.5013 31.0746 87.491 32.4091 87.4702C33.1627 87.4633 33.9163 87.4598 34.67 87.4598C36.8986 87.4506 38.9152 86.8698 40.7198 85.7175C42.2755 83.7401 42.5106 81.3754 42.756 78.9521C44.0939 68.1972 49.6182 58.1441 58.2159 51.4374C64.9848 46.3452 72.21 43.5761 80.621 42.38C82.8059 42.0654 84.448 41.8199 86.1489 40.2919C87.1929 38.8469 87.4314 37.834 87.4487 36.0639C87.4556 35.6007 87.4637 35.134 87.4729 34.6638C87.4729 34.1695 87.4764 33.6717 87.4798 33.1635C87.4867 32.6484 87.4936 32.1333 87.5005 31.6182C87.5178 30.2665 87.5282 28.9148 87.5386 27.5665C87.5489 26.1872 87.5662 24.8043 87.5835 23.425C87.6146 20.7181 87.6423 18.0147 87.663 15.3078L87.6527 15.3148ZM96.0809 29.1257C94.8191 30.4393 94.1001 31.6286 93.9998 33.4677C94.2245 35.4382 95.1683 36.8694 96.5961 38.1969C98.3868 39.3758 99.9217 39.3965 102.037 39.1684C103.87 38.2868 104.941 37.2151 105.823 35.3829C106.124 33.4919 106.041 32.0538 105.208 30.3183C103.856 28.8249 102.687 27.9883 100.734 27.4559C98.8224 27.4213 97.5433 27.8811 96.0775 29.1291L96.0809 29.1257ZM80.9356 44.2675C79.6738 45.5812 78.9547 46.7704 78.8545 48.6096C79.0792 50.5801 80.023 52.0113 81.4507 53.3388C83.2415 54.5177 84.7764 54.5384 86.8921 54.3103C88.7244 53.4287 89.796 52.357 90.6776 50.5248C90.9784 48.6338 90.8954 47.1956 90.0622 45.4602C88.7105 43.9668 87.542 43.1302 85.5888 42.5978C83.6771 42.5632 82.398 43.023 80.9322 44.271L80.9356 44.2675ZM54.1954 56.0595C53.3622 57.7915 53.2792 59.2331 53.58 61.1241C54.4685 62.9667 55.5747 63.9416 57.3655 64.9095C59.094 65.4731 60.3109 65.2449 61.9461 64.5673C63.3427 63.7618 64.2174 62.5587 64.9364 61.1241C65.1404 59.2607 65.1439 57.7673 64.3211 56.0595C63.0938 54.7043 62.112 53.7053 60.2418 53.408C57.4934 53.2835 56.0518 54.0095 54.1919 56.0595H54.1954ZM105.45 56.2738C104.72 57.5737 104.596 58.8943 104.686 60.3635C105.304 62.1474 106.245 63.3504 107.714 64.5293C109.37 65.3244 110.753 65.4005 112.516 64.9095C114.23 64.2458 115.029 63.3988 116.042 61.8812C116.592 60.2322 116.744 58.6316 116.163 56.9825C115.312 55.3439 114.338 54.3414 112.637 53.5532C109.508 53.1107 107.451 53.7295 105.45 56.2773V56.2738ZM127.308 55.6481C126.175 57.3663 126.043 58.7111 126.268 60.7438C126.918 62.5173 127.692 63.5302 129.296 64.5293C130.817 65.1515 132.034 65.3175 133.673 65.1446C135.643 64.2112 137.14 62.8008 137.915 60.7231C138.257 58.8217 137.821 57.4562 136.867 55.8244C135.394 54.3103 134.153 53.4944 132.041 53.4356C129.936 53.4667 128.67 53.9715 127.308 55.6516L127.308 55.6481ZM69.0088 71.0112C65.7246 74.9453 63.4222 80.4628 63.6988 85.6656C64.5251 92.1027 66.8931 97.3781 71.8816 101.623C76.8701 105.392 82.3531 106.249 88.4098 105.789C90.1521 105.471 91.7044 104.97 93.3326 104.275C93.6887 104.123 94.0447 103.971 94.4112 103.815C99.7558 101.219 103.04 96.5588 105.159 91.1485C106.846 85.9975 106.006 80.3383 103.797 75.5192C101.332 70.6932 97.443 67.0944 92.3612 65.117C83.7013 62.341 75.3594 64.4394 69.0088 71.0078V71.0112ZM44.8856 80.2899C43.7309 81.4895 42.8528 82.5716 42.552 84.2379C42.6108 86.1323 42.9358 87.5567 44.2909 88.9498C46.1163 90.509 47.2467 90.7855 49.5872 90.7544C51.4954 90.547 52.4807 89.5133 53.7183 88.1409C54.5514 86.4089 54.6344 84.9673 54.3337 83.0763C53.4452 81.2337 52.339 80.2588 50.5482 79.2909C48.4429 78.6617 46.6141 78.8484 44.8821 80.2899H44.8856ZM117.28 80.6114C116.018 81.9251 115.299 83.1143 115.198 84.9535C115.423 86.924 116.367 88.3552 117.795 89.6827C119.585 90.8616 121.12 90.8823 123.236 90.6542C125.068 89.7726 126.14 88.7009 127.022 86.8687C127.322 84.9777 127.239 83.5396 126.406 81.8041C125.054 80.3107 123.886 79.4741 121.933 78.9417C120.021 78.9071 118.742 79.3669 117.276 80.6149L117.28 80.6114ZM132.394 95.7533C131.146 97.0601 130.441 98.27 130.34 100.095C130.565 102.066 131.509 103.497 132.936 104.825C134.727 106.003 136.262 106.024 138.378 105.796C140.21 104.914 141.282 103.843 142.163 102.011C142.464 100.12 142.381 98.6814 141.548 96.946C140.279 95.5424 139.093 94.6712 137.289 94.0835C135.37 94.0455 133.884 94.533 132.394 95.7568V95.7533ZM32.9726 107.141C31.9389 108.755 31.7073 110.349 32.0012 112.226C32.6718 113.854 33.5119 114.974 34.9362 116.012C37.0795 116.672 38.8012 116.783 40.827 115.752C42.393 114.408 43.3783 113.422 43.7378 111.352C43.8692 109.443 43.3645 108.071 42.2236 106.55C40.8374 105.322 39.541 104.742 37.7122 104.596C35.7486 104.752 34.2966 105.748 32.9726 107.144L32.9726 107.141ZM54.7865 106.598C53.6906 108.04 53.2724 109.288 53.1997 111.092C53.4763 112.855 54.1435 114.072 55.4952 115.234C57.3897 116.565 58.8624 116.644 61.1509 116.392C62.9832 115.51 64.0549 114.439 64.9364 112.606C65.2407 110.705 65.1646 109.274 64.2969 107.542C62.7689 105.806 61.6833 104.804 59.2772 104.617C57.4727 104.704 56.1901 105.533 54.7865 106.595L54.7865 106.598ZM106.272 106.691C105.007 108.209 104.599 109.27 104.686 111.234C104.952 113.163 105.868 114.394 107.337 115.635C108.945 116.606 110.428 116.637 112.26 116.392C113.836 115.877 114.915 115.051 115.831 113.671C116.616 112.084 116.733 110.553 116.422 108.821C115.523 106.989 114.434 105.986 112.637 105.035C110.016 104.32 108.319 104.966 106.272 106.691ZM81.2295 116.634C80.0748 117.833 79.1967 118.916 78.896 120.582C78.9548 122.476 79.2797 123.901 80.6349 125.294C82.4602 126.853 83.5906 127.129 85.9311 127.098C87.8393 126.891 88.8246 125.857 90.0622 124.485C90.8954 122.753 90.9784 121.311 90.6776 119.42C89.7891 117.578 88.6829 116.603 86.8921 115.635C84.7868 115.006 82.958 115.192 81.226 116.634L81.2295 116.634ZM66.0876 131.776C64.9329 132.975 64.0549 134.057 63.7541 135.724C63.8129 137.618 64.1378 139.042 65.493 140.436C67.3183 141.995 68.4488 142.271 70.7892 142.24C72.6975 142.033 73.6827 140.999 74.9204 139.627C75.7535 137.895 75.8365 136.453 75.5357 134.562C74.6472 132.72 73.541 131.745 71.7503 130.777C69.6449 130.147 67.8161 130.334 66.0842 131.776H66.0876Z" fill="white"/>
<path d="M80.3411 0.0312693C80.6314 0.0208981 80.9218 0.010527 81.2226 0.000155865C82.4395 -0.00330118 83.2933 0.0450974 84.3236 0.722678C85.3399 2.16081 85.2155 3.44683 85.1982 5.1719C85.1982 5.52451 85.2051 5.87713 85.2051 6.24012C85.212 7.40515 85.2051 8.57017 85.2051 9.73174C85.2051 10.5407 85.2051 11.3496 85.2085 12.1586C85.2085 13.8525 85.2085 15.5499 85.2016 17.2439C85.1947 19.4184 85.1982 21.5929 85.2085 23.7673C85.2155 25.4371 85.212 27.1069 85.2085 28.7801C85.2085 29.5821 85.2085 30.3841 85.212 31.1862C85.2155 32.3062 85.212 33.4263 85.2016 34.5464C85.2016 34.8783 85.2085 35.2102 85.212 35.5524C85.1912 37.0528 84.8824 38.1959 84.2855 38.9818C83.2069 39.7458 82.4983 39.9809 81.2018 40.1157C68.6493 41.5573 57.7769 47.0402 49.6701 56.8167C44.2564 63.755 40.8235 72.2697 40.146 81.0471C40.0284 82.4853 39.7484 83.4429 38.8219 84.5975C37.5394 85.2405 36.077 85.04 34.6665 85.0435C34.3139 85.0435 33.9613 85.047 33.5983 85.0504C32.4298 85.0573 31.2614 85.0608 30.0929 85.0677C29.6953 85.0677 29.2978 85.0677 28.8864 85.0711C26.7775 85.0781 24.6722 85.085 22.5634 85.0884C20.382 85.0919 18.2041 85.1057 16.0227 85.1196C14.3495 85.1299 12.6763 85.1334 10.9996 85.1334C10.1941 85.1334 9.39208 85.1403 8.58657 85.1472C7.46305 85.1576 6.33951 85.1576 5.21598 85.1541C4.88178 85.1587 4.54531 85.1633 4.20652 85.1679C2.71306 85.1541 1.56302 84.8626 0.756384 84.2933C-0.0767769 83.0384 -0.0179847 81.8181 0.0165764 80.3626C0.0200249 80.0515 0.0269372 79.7369 0.0304009 79.4154C0.331152 69.5525 3.04149 59.527 7.02053 50.5283C7.15539 50.2241 7.28673 49.9199 7.42504 49.6088C8.54856 47.3133 9.78274 46.3591 12.0609 45.2771C12.6728 44.9625 13.2813 44.6444 13.8897 44.3264C14.1962 44.1651 14.5062 44.0026 14.8196 43.8389C18.6501 41.7267 22.2488 38.9749 25.5711 36.147C25.8545 35.905 26.138 35.6665 26.4284 35.4176C33.626 29.1016 40.2531 21.9005 44.5917 13.2821C46.5035 9.56579 48.2285 7.49157 52.3182 6.15369C53.3173 5.82527 54.2991 5.46574 55.2844 5.10275C60.4285 3.26014 65.6244 1.91881 70.9967 0.940466C71.2663 0.889763 71.5394 0.839059 71.816 0.788356C74.6473 0.290541 77.4717 0.100404 80.3411 0.0416342V0.0312693ZM58.572 17.0883C56.9437 18.8099 56.1452 20.5281 56.0414 22.91C56.1452 25.126 56.8435 26.5226 58.3957 28.0817C60.3973 29.869 61.9357 30.2355 64.6115 30.2113C66.7687 29.9485 68.1446 28.7801 69.6207 27.2624C71.1004 24.9289 71.2075 22.8893 70.6129 20.2342C69.5689 18.1877 68.1308 16.5594 65.9597 15.7435C63.0973 15.0176 61.0576 15.5949 58.5686 17.0849L58.572 17.0883ZM17.3156 58.4553C15.9086 60.3705 15.1757 62.1371 15.3451 64.5294C15.7288 66.8629 16.9181 68.225 18.7399 69.6735C20.6517 71.001 22.3525 71.1323 24.61 70.8385C26.7188 70.2854 28.3194 68.8853 29.5432 67.1083C30.4247 65.321 30.4351 63.437 30.1101 61.501C29.1733 59.1986 27.6349 57.6844 25.4743 56.4848C22.4113 55.6482 19.5247 56.0562 17.3156 58.4553Z" fill="white"/>
<path d="M161.471 120.177C166.249 124.748 169.737 131.751 169.889 138.427C170.045 147.049 168.192 154.603 162.221 161.071C159.068 164.303 155.494 166.664 151.249 168.254C150.836 168.411 150.419 168.569 149.997 168.728C142.253 171.214 134.019 170.097 126.887 166.439C120.159 162.81 115.268 156.601 113.038 149.296C111.088 141.801 111.627 134.161 115.209 127.188C119.496 119.915 125.538 115.095 133.628 112.714C143.785 110.242 153.928 113.118 161.474 120.177H161.471ZM150.495 126.991C149.838 127.81 149.302 128.571 148.759 129.456C148.431 129.971 148.103 130.483 147.774 130.998C147.601 131.27 147.427 131.544 147.252 131.821C146.312 133.29 145.33 134.731 144.352 136.176C143.951 136.775 143.55 137.376 143.145 137.974C142.53 138.894 141.915 139.81 141.296 140.729C140.687 141.632 140.082 142.538 139.477 143.443C139.291 143.72 139.104 143.996 138.91 144.28C138.274 145.13 137.844 146.056 137.621 147.056C135.571 146.126 133.998 144.906 132.3 143.457C130.817 142.257 129.684 141.825 127.779 141.756C126.396 142.354 125.456 143.07 124.75 144.408C124.539 145.652 124.443 146.561 125.131 147.668C126.828 149.652 128.799 151.152 130.9 152.687C131.246 152.943 131.588 153.199 131.944 153.462C134.631 155.446 136.11 156.093 139.512 155.764C143.477 154.011 145.973 148.577 148.265 145.047C148.794 144.235 149.323 143.422 149.852 142.61C150.201 142.074 150.55 141.535 150.899 140.999C151.919 139.433 152.949 137.881 153.994 136.332C154.225 135.986 154.457 135.644 154.692 135.288C155.107 134.669 155.528 134.05 155.954 133.435C156.991 131.876 157.61 130.825 157.298 128.886C156.611 127.565 156.133 126.801 154.813 126.092C153.012 125.629 152.04 126.034 150.485 126.991L150.495 126.991Z" fill="white"/>
</svg>
