<?xml version="1.0" encoding="UTF-8"?>
<svg id="Layer_1" data-name="Layer 1" xmlns="http://www.w3.org/2000/svg" viewBox="0 0 711.06 597.33">
  <defs>
    <style>
      .cls-1 {
        fill: none;
      }

      .cls-2 {
        fill: #0c689a;
      }

      .cls-3 {
        fill: #286f9d;
      }
    </style>
  </defs>
  <g>
    <path class="cls-3" d="M26.3,516.78v29.59h-5.5v-12.68H5.5v12.68H0v-29.59h5.5v12.22h15.3v-12.22h5.5Z"/>
    <path class="cls-3" d="M53.42,539.53h-14.8l-2.92,6.85h-5.67l13.32-29.59h5.41l13.36,29.59h-5.75l-2.96-6.85ZM51.6,535.21l-5.58-12.93-5.54,12.93h11.12Z"/>
    <path class="cls-3" d="M85.23,546.37l-6.04-8.66c-.38.04-.76.04-1.14.04h-6.68v8.62h-5.5v-29.59h12.18c7.78,0,12.6,3.97,12.6,10.53,0,4.48-2.28,7.78-6.3,9.35l6.81,9.72h-5.92ZM77.79,521.43h-6.43v11.8h6.43c4.82,0,7.32-2.2,7.32-5.92s-2.5-5.87-7.32-5.87Z"/>
    <path class="cls-3" d="M96.75,516.78h12.94c9.59,0,16.15,5.92,16.15,14.79s-6.56,14.8-16.15,14.8h-12.94v-29.59ZM109.43,541.72c6.59,0,10.87-4.01,10.87-10.15s-4.27-10.14-10.87-10.14h-7.19v20.29h7.19Z"/>
    <path class="cls-3" d="M173.97,516.78l-9.81,29.59h-5.83l-7.32-21.9-7.44,21.9h-5.88l-9.81-29.59h5.71l7.36,22.49,7.65-22.49h5.07l7.49,22.62,7.57-22.62h5.24Z"/>
    <path class="cls-3" d="M196.69,539.53h-14.8l-2.92,6.85h-5.67l13.32-29.59h5.41l13.36,29.59h-5.75l-2.96-6.85ZM194.87,535.21l-5.58-12.93-5.54,12.93h11.12Z"/>
    <path class="cls-3" d="M228.5,546.37l-6.04-8.66c-.38.04-.76.04-1.14.04h-6.68v8.62h-5.5v-29.59h12.18c7.78,0,12.6,3.97,12.6,10.53,0,4.48-2.28,7.78-6.3,9.35l6.81,9.72h-5.92ZM221.06,521.43h-6.43v11.8h6.43c4.82,0,7.32-2.2,7.32-5.92s-2.5-5.87-7.32-5.87Z"/>
    <path class="cls-3" d="M262.21,541.76v4.61h-22.2v-29.59h21.6v4.61h-16.11v7.69h14.29v4.52h-14.29v8.16h16.7Z"/>
    <path class="cls-3" d="M279.98,516.78h5.5v29.59h-5.5v-29.59Z"/>
    <path class="cls-3" d="M319.76,516.78v29.59h-4.52l-16.32-20.04v20.04h-5.45v-29.59h4.52l16.32,20.04v-20.04h5.45Z"/>
    <path class="cls-3" d="M325.57,531.57c0-8.83,6.76-15.22,15.86-15.22,4.82,0,8.96,1.73,11.71,4.95l-3.55,3.34c-2.16-2.32-4.82-3.47-7.91-3.47-6.13,0-10.57,4.31-10.57,10.4s4.44,10.4,10.57,10.4c3.09,0,5.75-1.14,7.91-3.51l3.55,3.38c-2.75,3.21-6.89,4.95-11.75,4.95-9.05,0-15.81-6.38-15.81-15.23Z"/>
    <path class="cls-3" d="M358.4,516.78h5.5v24.94h15.48v4.65h-20.97v-29.59Z"/>
    <path class="cls-3" d="M383.03,533.48v-16.7h5.5v16.49c0,6.09,2.74,8.71,7.52,8.71s7.48-2.62,7.48-8.71v-16.49h5.41v16.7c0,8.63-4.86,13.32-12.94,13.32s-12.98-4.69-12.98-13.32Z"/>
    <path class="cls-3" d="M416.61,516.78h12.94c9.6,0,16.15,5.92,16.15,14.79s-6.56,14.8-16.15,14.8h-12.94v-29.59ZM429.3,541.72c6.59,0,10.87-4.01,10.87-10.15s-4.27-10.14-10.87-10.14h-7.19v20.29h7.19Z"/>
    <path class="cls-3" d="M473.71,541.76v4.61h-22.2v-29.59h21.6v4.61h-16.11v7.69h14.29v4.52h-14.29v8.16h16.7Z"/>
    <path class="cls-3" d="M479.82,516.78h12.94c9.59,0,16.15,5.92,16.15,14.79s-6.56,14.8-16.15,14.8h-12.94v-29.59ZM492.5,541.72c6.59,0,10.87-4.01,10.87-10.15s-4.27-10.14-10.87-10.14h-7.19v20.29h7.19Z"/>
    <path class="cls-3" d="M97.43,567.48l-5.92,29.59h-3l4.69-23.47-15.3,19.7h-1.48l-7.9-20.08-4.73,23.85h-3l5.92-29.59h2.54l8.54,21.98,16.91-21.98h2.75Z"/>
    <path class="cls-3" d="M121.42,589.17h-16.53l-5.12,7.9h-3.38l19.45-29.59h3.09l7.61,29.59h-3.13l-1.99-7.9ZM120.83,586.63l-4.02-15.99-10.32,15.99h14.34Z"/>
    <path class="cls-3" d="M141.06,570.19h-10.44l.55-2.71h23.97l-.59,2.71h-10.4l-5.37,26.89h-3.09l5.37-26.89Z"/>
    <path class="cls-3" d="M162.64,570.19l-2.11,10.53h15.35l-.51,2.66h-15.35l-2.2,10.99h17.8l-.55,2.71h-20.89l5.92-29.59h20.29l-.55,2.71h-17.21ZM171.02,565.07h-3.13l6.43-5.24h4.1l-7.4,5.24Z"/>
    <path class="cls-3" d="M200.5,587.18l5.58,9.89h-3.38l-5.33-9.43c-.47.04-1.02.04-1.52.04h-8.41l-1.86,9.39h-3.13l5.92-29.59h10.65c6.73,0,10.57,3.08,10.57,8.37,0,6.09-3.38,10.01-9.09,11.33ZM206.47,576.14c0-3.88-2.75-5.96-7.65-5.96h-7.87l-3,14.79h7.99c6.68,0,10.53-3,10.53-8.83Z"/>
    <path class="cls-3" d="M218.92,567.48h3.09l-5.92,29.59h-3.09l5.92-29.59Z"/>
    <path class="cls-3" d="M234.21,570.19l-2.11,10.53h15.35l-.51,2.66h-15.35l-2.2,10.99h17.8l-.55,2.71h-20.89l5.92-29.59h20.29l-.55,2.71h-17.21Z"/>
    <path class="cls-3" d="M259.94,567.48h3.09l-5.37,26.89h16.57l-.55,2.71h-19.66l5.92-29.59Z"/>
    <path class="cls-3" d="M295.89,567.48h3.09l-5.92,29.59h-3.09l5.92-29.59Z"/>
    <path class="cls-3" d="M333.34,567.48l-5.92,29.59h-2.54l-14.16-24.52-4.9,24.52h-3.09l5.92-29.59h2.54l14.16,24.52,4.9-24.52h3.09Z"/>
    <path class="cls-3" d="M337.17,585.02c0-9.72,6.94-17.8,18.01-17.8,4.74,0,8.54,1.52,10.53,4.31l-2.2,1.95c-1.86-2.28-4.69-3.47-8.58-3.47-9.01,0-14.67,6.8-14.67,14.84,0,5.79,3.76,9.68,10.99,9.68,3.85,0,7.02-1.19,9.39-3.51l1.82,2.07c-2.62,2.75-6.81,4.23-11.46,4.23-8.79,0-13.82-4.99-13.82-12.31Z"/>
    <path class="cls-3" d="M373.38,567.48h3.09l-5.37,26.89h16.57l-.55,2.71h-19.66l5.92-29.59Z"/>
    <path class="cls-3" d="M393.74,587.73c0-1.02.09-2.11.34-3.3l3.38-16.95h3.09l-3.38,16.87c-.21,1.1-.34,2.07-.34,3,0,4.74,2.79,7.19,7.87,7.19,5.75,0,9.21-3.17,10.61-10.19l3.38-16.87h3.04l-3.38,17.08c-1.73,8.58-6.42,12.77-13.91,12.77-6.81,0-10.7-3.59-10.7-9.6Z"/>
    <path class="cls-3" d="M423.14,593.57l1.52-2.45c1.99,2.11,5.75,3.55,9.51,3.55,5.16,0,8.71-2.12,8.71-5.84,0-6.8-15.39-3.38-15.39-12.68,0-5.58,4.95-8.92,11.84-8.92,3.51,0,6.89.89,9.18,2.54l-1.31,2.54c-2.16-1.56-4.99-2.41-8.04-2.41-5.16,0-8.63,2.29-8.63,5.97-.04,6.89,15.43,3.59,15.43,12.56,0,5.7-5.07,8.92-12.09,8.92-4.4,0-8.75-1.61-10.74-3.76Z"/>
  </g>
  <path class="cls-2" d="M440.59,174.03l-26.83-.15c-4-20.65-12-40.73-24-58.98l19.05-18.98c6.84-6.76,6.84-17.74.14-24.58l-20.58-20.87c-6.76-6.84-17.74-6.84-24.58-.15l-19.13,18.91c-18.04-12.22-38.11-20.51-58.76-24.65l.15-26.91c.15-9.6-7.63-17.38-17.31-17.45L239.44,0c-9.6-.07-17.38,7.71-17.46,17.38l-.29,26.83c-20.72,4-40.87,12-58.98,24l-18.91-19.05c-6.84-6.84-17.82-6.84-24.65-.15l-20.73,20.58c-6.91,6.76-6.91,17.74-.22,24.58l18.91,19.13c-12.22,18.04-20.51,38.03-24.65,58.76l-26.91-.22c-9.6-.07-17.38,7.71-17.45,17.38l-.22,29.31c-.07,9.53,7.71,17.38,17.38,17.45l26.83.22c4.07,20.66,12,40.73,24.07,58.98l-19.13,18.91c-6.84,6.76-6.84,17.74-.15,24.65l20.58,20.8c6.76,6.91,17.74,6.91,24.58.22l16.44-16.29,36.58-86.1c-27.93-30.76-26.91-78.32,2.91-107.85,30.69-30.33,80-30.03,110.25.58,30.33,30.62,30.11,80-.58,110.25-14.69,14.54-33.6,22.03-52.8,22.47l-34.91,83.71-.15,25.89c-.07,9.6,7.71,17.38,17.31,17.45l29.31.15c9.6.15,17.38-7.64,17.45-17.31l.22-26.84c20.66-4.07,40.73-12,58.98-24.07l18.91,19.13c6.84,6.84,17.82,6.84,24.65.15l20.87-20.58c6.84-6.76,6.84-17.74.15-24.65l-18.91-19.05c12.22-18.11,20.51-38.11,24.65-58.76l26.91.15c9.6.07,17.38-7.71,17.45-17.31l.22-29.31c.07-9.6-7.71-17.38-17.38-17.53Z"/>
  <path class="cls-2" d="M186.19,391.68c-3.2,0-6.39-.64-9.43-1.91h0c-12.44-5.2-18.33-19.54-13.14-31.99l43.9-105.1c-3.44-4.12-6.19-8.64-8.16-13.46-5.33-12.97-5.28-27.26.14-40.23s15.55-23.05,28.52-28.37c4.05-1.67,8.4-2.82,12.93-3.42,3.01-.42,6.02.83,7.87,3.24,1.84,2.4,2.27,5.63,1.1,8.43l-9.08,21.75c-1.07,2.57-1.08,5.4-.02,7.96,1.06,2.57,3.05,4.58,5.62,5.65l6.22,2.61c2.57,1.08,5.41,1.07,7.97.02,2.57-1.06,4.58-3.05,5.66-5.62l9.08-21.74c.87-2.08,2.5-3.71,4.6-4.57.7-.29,1.44-.48,2.18-.57,2.99-.37,6,.9,7.83,3.33,2.74,3.64,4.99,7.55,6.65,11.6,5.33,12.97,5.28,27.26-.14,40.23-5.42,12.97-15.55,23.05-28.52,28.37-4.82,1.98-9.96,3.21-15.31,3.65l-43.9,105.1c-2.52,6.03-7.24,10.72-13.27,13.2-3,1.23-6.14,1.85-9.29,1.85ZM242.1,171.5c-.18,0-.37.01-.56.04-4.17.56-8.16,1.61-11.86,3.13-24.59,10.1-36.38,38.32-26.28,62.91,1.96,4.78,4.76,9.24,8.3,13.27l.9,1.03-44.95,107.59c-4.27,10.22.57,22.01,10.79,26.28h0c4.94,2.06,10.4,2.08,15.38.05,4.96-2.04,8.83-5.89,10.9-10.84l44.95-107.6,1.36-.08c5.35-.31,10.49-1.46,15.28-3.43,11.89-4.88,21.17-14.13,26.15-26.02,4.97-11.9,5.02-25,.13-36.89-1.52-3.7-3.58-7.28-6.11-10.64-.88-1.19-2.36-1.8-3.81-1.62-.36.04-.71.13-1.05.27-1.02.42-1.81,1.21-2.23,2.22l-9.08,21.75c-1.53,3.64-4.38,6.47-8.02,7.97-3.65,1.5-7.66,1.49-11.31-.03l-6.23-2.61c-3.64-1.52-6.47-4.37-7.97-8.02s-1.49-7.66.03-11.31l9.08-21.75c.57-1.36.36-2.93-.53-4.09-.78-1.02-2-1.61-3.26-1.61ZM186.2,375.69c-3.34,0-6.51-1.98-7.85-5.25h0c-1.78-4.33.29-9.29,4.62-11.07,2.1-.86,4.4-.85,6.49.02,2.09.87,3.71,2.51,4.57,4.61.86,2.09.85,4.4-.02,6.49-.87,2.09-2.51,3.71-4.6,4.57-1.05.43-2.14.64-3.21.64ZM182.38,368.78c.86,2.11,3.28,3.1,5.38,2.24,1.02-.42,1.81-1.21,2.23-2.22.42-1.02.43-2.13.01-3.15-.42-1.02-1.21-1.81-2.22-2.24-1.02-.42-2.14-.43-3.15-.01-1.02.42-1.81,1.21-2.23,2.22-.42,1.02-.43,2.13-.01,3.15h0Z"/>
  <line class="cls-1" x1="195.08" y1="257.37" x2="158.5" y2="343.48"/>
</svg>