<?xml version="1.0" encoding="UTF-8"?>
<svg id="Layer_1" data-name="Layer 1" xmlns="http://www.w3.org/2000/svg" viewBox="0 0 656.01 657.44">
  <defs>
    <style>
      .cls-1 {
        fill: #0b6899;
      }

      .cls-2 {
        fill: #0d6d9d;
      }
    </style>
  </defs>
  <path class="cls-2" d="M331.1,568.65c-62.23,0-124.44-23.68-171.81-71.05-45.89-45.89-71.16-106.91-71.16-171.81s25.27-125.91,71.16-171.81c94.73-94.73,248.89-94.72,343.62,0,45.9,45.89,71.16,106.91,71.16,171.81s-25.27,125.92-71.16,171.81h0c-47.36,47.36-109.6,71.05-171.81,71.05ZM331.1,104.2c-56.78,0-113.55,21.6-156.77,64.83-41.87,41.87-64.94,97.55-64.94,156.77s23.06,114.9,64.94,156.77c86.43,86.43,227.1,86.42,313.55,0,41.88-41.88,64.94-97.55,64.94-156.77s-23.06-114.9-64.94-156.77c-43.22-43.21-100.01-64.83-156.78-64.83Z"/>
  <g>
    <path class="cls-2" d="M77.64,216.47l-15.61-6.79-12.38,28.42-10.96-4.76,12.38-28.44-21.5-9.37,6.19-14.22,59.04,25.71-20.22,46.44-10.97-4.78,14.03-32.2Z"/>
    <path class="cls-2" d="M42.26,246.01c18.89,2.98,30.46,20.5,27.17,41.41-3.28,20.81-19.59,34.04-38.57,31.04-18.97-3-30.45-20.6-27.16-41.42,3.29-20.9,19.68-34.02,38.57-31.04ZM33.3,302.96c12.09,1.89,21.74-5.69,23.6-17.52,1.86-11.82-5-22.01-17.08-23.92-12.08-1.9-21.74,5.69-23.6,17.51-1.87,11.83,5,22.01,17.07,23.93Z"/>
    <path class="cls-2" d="M4.79,376.55l16.35-14.84-.09-.76-1.5-13.41-17.8,2.01-1.74-15.4,63.9-7.27,3.26,28.81c2.01,17.77-5.59,29.91-19.93,31.54-9.58,1.09-17.18-3.14-21.72-11.4l-18.86,17.27-1.87-16.55ZM55.01,356.21l-1.42-12.55-22.27,2.53,1.42,12.56c1.06,9.41,5.8,13.68,12.74,12.89,7.03-.79,10.6-6.01,9.53-15.43Z"/>
    <path class="cls-2" d="M34.12,469.31l35.68-14.7-36.89-6.21-2.64-6.47,21.22-29.87-34.95,14.29-5.51-13.45,59.53-24.36,4.85,11.87-27.49,38.32,46.34,7.72,4.83,11.77-59.46,24.53-5.5-13.45Z"/>
    <path class="cls-2" d="M75.21,485.95l28.29-22.31,9.61,12.19-27.87,21.98c-9.6,7.57-10.12,15.06-4.32,22.44,5.85,7.45,13.2,8.61,22.8,1.04l27.86-21.97,9.47,12.04-28.29,22.31c-14.88,11.73-30.08,9.34-41.87-5.63-11.79-14.97-10.54-30.34,4.32-42.07Z"/>
    <path class="cls-2" d="M147.94,516.87l12.02,9.8-33.02,40.42,26.04,21.26-7.68,9.39-38.07-31.06,40.7-49.81Z"/>
    <path class="cls-2" d="M204.2,614.36l-27.72-14.19-11.58,9.56-14.15-7.25,55.98-43.61,13.64,6.98-2.69,70.91-14.5-7.42,1.01-14.98ZM205.01,602.07l1.78-26.76-20.71,17.08,18.93,9.68Z"/>
    <path class="cls-2" d="M255.34,592.49l-20.65-5.71,3.22-11.7,56.24,15.54-3.24,11.7-20.65-5.71-13.9,50.36-14.94-4.13,13.91-50.36Z"/>
    <path class="cls-2" d="M297.87,589.73l15.42,1.85-7.71,63.89-15.41-1.86,7.71-63.88Z"/>
    <path class="cls-2" d="M321.34,626.57c-1.28-19.08,13.23-34.25,34.33-35.66,21-1.4,37.51,11.6,38.79,30.78,1.28,19.17-13.34,34.25-34.34,35.65-21.09,1.4-37.51-11.69-38.78-30.78ZM378.81,622.73c-.82-12.21-10.35-19.96-22.28-19.17-11.93.8-20.35,9.75-19.53,21.96.82,12.2,10.36,19.96,22.28,19.16,11.94-.8,20.35-9.75,19.53-21.95Z"/>
    <path class="cls-2" d="M453.6,567.9l21.27,60.7-12.02,4.2-44.48-25.85,12.92,36.86-14.48,5.06-21.26-60.71,12.12-4.23,44.39,25.89-12.91-36.87,14.46-5.04Z"/>
  </g>
  <g>
    <path class="cls-2" d="M104.86,142.31c-12.96-12.23-12.85-30.93-.22-44.32,7.01-7.43,15.56-11.08,24.3-10.5l-.13,11.95c-6.05-.24-11.19,1.77-15.25,6.07-7.59,8.04-7.32,19.07.78,26.73,8.12,7.65,19.16,7.27,26.74-.77,4.06-4.3,5.76-9.56,5.1-15.62l11.94-.84c1.14,8.76-2,17.5-9.08,25-12.57,13.32-31.24,14.53-44.19,2.3Z"/>
    <path class="cls-2" d="M199.38,84.69l6.29,9-37.54,26.21-33.84-48.49,36.64-25.58,6.3,9.01-25.5,17.8,7.35,10.53,22.51-15.71,6.09,8.73-22.5,15.7,7.83,11.23,26.39-18.43Z"/>
    <path class="cls-2" d="M244.64,76.47l-16.95-10.65-.63.27-10.94,4.69,6.48,15.13-12.57,5.39-23.29-54.33,23.53-10.08c14.52-6.21,26.82-2.57,32.05,9.61,3.48,8.15,1.94,15.88-3.83,21.95l19.67,12.25-13.52,5.78ZM213.96,37.43l-10.24,4.39,8.1,18.94,10.26-4.39c7.69-3.3,10.03-8.53,7.51-14.43-2.57-5.97-7.94-7.8-15.63-4.51Z"/>
    <path class="cls-2" d="M297.38,50.29l-26.96,5.13-2.77,13.42-13.78,2.63,14.83-63.02,13.27-2.53,37.04,53.13-14.11,2.68-7.52-11.46ZM291.2,40.89l-13.44-20.48-4.97,23.98,18.42-3.51Z"/>
    <path class="cls-2" d="M372.21,62.38l2.09-35.46-19.18,28.15-6.16-.38-15.57-29.51-2.12,34.7-12.84-.79,3.61-59.09,11.32.68,19.87,38.09,24.03-35.39,11.23.68-3.44,59.11-12.84-.79Z"/>
    <path class="cls-2" d="M407.56,9.59l13.26,3.36-14.48,57.34-13.28-3.36,14.49-57.35Z"/>
    <path class="cls-2" d="M471.34,103.38c-5.47,2.73-11.6,2.77-17.54.12-8.01-3.59-12.34-9.03-16.73-21.53-13.98-8.47-19.4-24.3-12.86-38.94,7.17-16.04,24.96-22.34,42-14.73,16.96,7.58,24.26,24.99,17.05,41.11-5.63,12.63-17.91,19.19-31.04,17.75,1.38,3.95,3.24,5.99,5.94,7.18,3.31,1.49,6.83,1.48,10.58-.08l2.58,9.12ZM446.04,73.48c9.63,4.31,20.02.53,24.6-9.73,4.58-10.25.47-20.51-9.17-24.81-9.63-4.31-20.01-.53-24.6,9.73-4.57,10.25-.46,20.5,9.18,24.82Z"/>
    <path class="cls-2" d="M489.53,77.61l20.53-26,10.74,8.48-20.21,25.6c-6.96,8.83-5.99,15.5.5,20.64,6.56,5.18,13.22,4.53,20.19-4.3l20.21-25.59,10.6,8.38-20.52,25.98c-10.78,13.67-24.57,15.04-37.77,4.62-13.19-10.42-15.04-24.16-4.26-37.8Z"/>
    <path class="cls-2" d="M558.92,164.38l-8.37,7.12-29.64-34.9,45.06-38.29,28.94,34.06-8.37,7.11-20.13-23.69-9.79,8.32,17.77,20.92-8.11,6.89-17.77-20.92-10.43,8.86,20.84,24.53Z"/>
    <path class="cls-2" d="M590.22,178.6c16.31-7.25,33.53.07,41.02,16.92,4.16,9.35,4.23,18.67.31,26.52l-10.99-4.74c2.55-5.49,2.7-11,.28-16.41-4.49-10.12-14.8-14.14-25-9.61-10.18,4.52-14.1,14.87-9.61,25,2.41,5.41,6.6,8.99,12.46,10.74l-3.85,11.34c-8.52-2.32-15.39-8.6-19.58-18.03-7.45-16.76-1.36-34.46,14.95-41.72Z"/>
    <path class="cls-2" d="M606.84,288.11l-10.72,2.32-9.72-44.75,57.79-12.55,9.49,43.68-10.74,2.35-6.6-30.38-12.55,2.71,5.83,26.84-10.39,2.25-5.84-26.83-13.38,2.91,6.83,31.46Z"/>
    <path class="cls-2" d="M597.06,333.11l16.34-11.58v-.67s-.15-11.9-.15-11.9l-16.45.18-.15-13.68,59.08-.65.29,25.57c.18,15.79-7.9,25.75-21.15,25.9-8.86.09-15.41-4.31-18.79-11.96l-18.85,13.48-.16-14.69ZM644.86,319.75l-.12-11.15-20.6.22.12,11.15c.09,8.36,4.03,12.53,10.44,12.47,6.51-.07,10.25-4.34,10.16-12.69Z"/>
    <path class="cls-2" d="M600.96,391.99l5.64-26.85-11.31-7.73,2.88-13.72,52.41,37.94-2.78,13.22-63.26,13.71,2.94-14.04,13.48-2.53ZM612.01,389.92l24.08-4.52-20.21-13.83-3.87,18.35Z"/>
    <path class="cls-2" d="M560.93,456.17l31.87,15.66-18.5-28.58,2.74-5.53,33.23-2.9-31.15-15.41,5.7-11.53,53.06,26.25-5.02,10.15-42.8,3.55,23.29,35.87-4.99,10.08-53.13-26.09,5.69-11.52Z"/>
    <path class="cls-2" d="M596.16,508.86l-8.12,11-47.58-35.11,8.13-11.01,47.57,35.12Z"/>
    <path class="cls-2" d="M558.47,511.3c12.47,12.75,11.6,31.46-1.56,44.35-7.33,7.16-16.02,10.46-24.75,9.53l.62-11.96c6.04.49,11.25-1.31,15.49-5.45,7.92-7.74,8.09-18.79.3-26.78-7.8-7.98-18.87-8.04-26.78-.3-4.23,4.14-6.15,9.33-5.74,15.43l-11.96.34c-.8-8.79,2.7-17.43,10.08-24.65,13.12-12.82,31.84-13.27,44.3-.51Z"/>
  </g>
  <path class="cls-1" d="M315.44,393.56l27.89-153.18s-123.46-14.63-175.59,3.66c0,0-21.03,6.4-20.12,21.95l-18.75-3.2s-5.94,15.09-.91,24.69l12.8,1.83s-3.66,30.18-.91,33.84c2.74,3.66,7.32,10.06,16.46,11.89s41.61,41.61,41.61,41.61c0,0,5.03,5.03,11.89,6.4,6.86,1.37,93.28,6.4,105.63,10.52Z"/>
  <path class="cls-1" d="M321.06,395.11l29.52-152.88s120.37,31.11,162.32,67.05c0,0,17.28,13.59,10.8,27.75l18.63,3.81s.07,16.22-8.1,23.34l-12.6-2.94s-7.53,29.45-11.41,31.87c-3.88,2.42-10.46,6.72-19.65,5.11-9.19-1.61-53.86,23.7-53.86,23.7,0,0-6.51,2.86-13.4,1.66-6.89-1.21-89.26-27.84-102.26-28.48Z"/>
</svg>