<?xml version="1.0" encoding="UTF-8"?>
<svg id="Layer_1" data-name="Layer 1" xmlns="http://www.w3.org/2000/svg" viewBox="0 0 890.53 756.29">
  <defs>
    <style>
      .cls-1, .cls-2 {
        fill: #286f9d;
      }

      .cls-2 {
        fill-rule: evenodd;
      }
    </style>
  </defs>
  <g>
    <path class="cls-1" d="M181.79,666.14v33.12h-5.06l-18.26-22.43v22.43h-6.1v-33.12h5.06l18.26,22.43v-22.43h6.1Z"/>
    <path class="cls-1" d="M188.29,682.7c0-9.79,7.57-17.03,17.84-17.03s17.83,7.19,17.83,17.03-7.57,17.04-17.83,17.04-17.84-7.24-17.84-17.04ZM217.76,682.7c0-6.76-4.97-11.64-11.64-11.64s-11.64,4.87-11.64,11.64,4.97,11.64,11.64,11.64,11.64-4.87,11.64-11.64Z"/>
    <path class="cls-1" d="M230.47,666.14h6.15v33.12h-6.15v-33.12Z"/>
    <path class="cls-1" d="M242.76,695.76l2.13-4.78c2.65,2.13,6.86,3.65,10.93,3.65,5.16,0,7.33-1.85,7.33-4.31,0-7.15-19.68-2.46-19.68-14.77,0-5.34,4.26-9.89,13.34-9.89,3.97,0,8.14,1.04,11.02,2.93l-1.94,4.78c-2.98-1.76-6.25-2.61-9.13-2.61-5.11,0-7.19,1.99-7.19,4.5,0,7.05,19.63,2.46,19.63,14.62,0,5.3-4.3,9.85-13.39,9.85-5.16,0-10.32-1.61-13.06-3.98Z"/>
    <path class="cls-1" d="M300.13,694.1v5.16h-24.84v-33.12h24.18v5.16h-18.03v8.61h15.99v5.06h-15.99v9.13h18.69Z"/>
    <path class="cls-1" d="M305.6,680.05h13.01v4.92h-13.01v-4.92Z"/>
    <path class="cls-1" d="M326.11,666.14h14.48c10.74,0,18.08,6.62,18.08,16.56s-7.34,16.56-18.08,16.56h-14.48v-33.12ZM340.31,694.06c7.38,0,12.16-4.49,12.16-11.36s-4.78-11.35-12.16-11.35h-8.04v22.71h8.04Z"/>
    <path class="cls-1" d="M386.18,691.6h-16.56l-3.26,7.66h-6.34l14.91-33.12h6.06l14.95,33.12h-6.43l-3.31-7.66ZM384.14,686.77l-6.25-14.47-6.2,14.47h12.45Z"/>
    <path class="cls-1" d="M430.53,699.26l-.05-21.95-10.88,18.17h-2.75l-10.88-17.89v21.67h-5.87v-33.12h5.06l13.15,21.95,12.92-21.95h5.06l.05,33.12h-5.82Z"/>
    <path class="cls-1" d="M472.98,677.92c0,7.29-5.39,11.78-14.1,11.78h-7.47v9.56h-6.15v-33.12h13.63c8.71,0,14.1,4.44,14.1,11.78ZM466.79,677.92c0-4.16-2.79-6.57-8.19-6.57h-7.19v13.15h7.19c5.39,0,8.19-2.42,8.19-6.58Z"/>
    <path class="cls-1" d="M479.11,666.14h6.15v33.12h-6.15v-33.12Z"/>
    <path class="cls-1" d="M523.62,666.14v33.12h-5.06l-18.26-22.43v22.43h-6.1v-33.12h5.06l18.26,22.43v-22.43h6.1Z"/>
    <path class="cls-1" d="M555.11,682.33h5.82v13.2c-3.45,2.79-8.28,4.21-12.96,4.21-10.27,0-17.84-7.15-17.84-17.04s7.57-17.03,17.93-17.03c5.54,0,10.17,1.84,13.3,5.4l-3.88,3.78c-2.6-2.6-5.58-3.78-9.13-3.78-7.05,0-12.02,4.78-12.02,11.64s4.97,11.64,11.97,11.64c2.36,0,4.69-.48,6.81-1.7v-10.32Z"/>
    <path class="cls-1" d="M579.25,695.76l2.13-4.78c2.65,2.13,6.86,3.65,10.93,3.65,5.16,0,7.33-1.85,7.33-4.31,0-7.15-19.68-2.46-19.68-14.77,0-5.34,4.26-9.89,13.34-9.89,3.97,0,8.14,1.04,11.02,2.93l-1.94,4.78c-2.98-1.76-6.25-2.61-9.13-2.61-5.11,0-7.19,1.99-7.19,4.5,0,7.05,19.63,2.46,19.63,14.62,0,5.3-4.3,9.85-13.39,9.85-5.16,0-10.32-1.61-13.06-3.98Z"/>
    <path class="cls-1" d="M641.21,666.14v33.12h-6.15v-14.19h-17.13v14.19h-6.15v-33.12h6.15v13.67h17.13v-13.67h6.15Z"/>
    <path class="cls-1" d="M650.08,666.14h6.15v33.12h-6.15v-33.12Z"/>
    <path class="cls-1" d="M695.58,699.26l-.05-21.95-10.88,18.17h-2.75l-10.88-17.89v21.67h-5.87v-33.12h5.06l13.15,21.95,12.92-21.95h5.06l.05,33.12h-5.82Z"/>
    <path class="cls-1" d="M707.52,695.76l2.13-4.78c2.65,2.13,6.86,3.65,10.93,3.65,5.16,0,7.33-1.85,7.33-4.31,0-7.15-19.68-2.46-19.68-14.77,0-5.34,4.26-9.89,13.34-9.89,3.97,0,8.14,1.04,11.02,2.93l-1.94,4.78c-2.98-1.76-6.25-2.61-9.13-2.61-5.11,0-7.19,1.99-7.19,4.5,0,7.05,19.63,2.46,19.63,14.62,0,5.3-4.3,9.85-13.39,9.85-5.16,0-10.32-1.61-13.06-3.98Z"/>
    <path class="cls-1" d="M0,742.51c0-10.88,7.76-19.92,20.16-19.92,5.3,0,9.56,1.7,11.78,4.82l-2.46,2.18c-2.08-2.55-5.25-3.88-9.6-3.88-10.08,0-16.42,7.61-16.42,16.61,0,6.48,4.21,10.83,12.3,10.83,4.3,0,7.85-1.33,10.5-3.93l2.03,2.31c-2.93,3.08-7.62,4.74-12.82,4.74-9.84,0-15.47-5.59-15.47-13.77Z"/>
    <path class="cls-1" d="M55.76,747.16h-18.5l-5.73,8.85h-3.78l21.76-33.12h3.45l8.52,33.12h-3.5l-2.23-8.85ZM55.1,744.32l-4.5-17.89-11.54,17.89h16.04Z"/>
    <path class="cls-1" d="M73.57,722.88h3.45l-6.01,30.09h18.55l-.61,3.03h-22l6.62-33.12Z"/>
    <path class="cls-1" d="M104.26,725.91l-2.36,11.78h17.18l-.57,2.98h-17.18l-2.46,12.3h19.92l-.62,3.03h-23.37l6.62-33.12h22.71l-.62,3.03h-19.26Z"/>
    <path class="cls-1" d="M124.06,752.08l1.7-2.74c2.23,2.36,6.44,3.97,10.65,3.97,5.77,0,9.75-2.37,9.75-6.53,0-7.61-17.22-3.78-17.22-14.19,0-6.25,5.54-9.98,13.25-9.98,3.93,0,7.71.99,10.27,2.84l-1.47,2.84c-2.42-1.75-5.58-2.69-8.99-2.69-5.77,0-9.65,2.56-9.65,6.68-.04,7.71,17.27,4.02,17.27,14.05,0,6.38-5.68,9.98-13.53,9.98-4.92,0-9.8-1.8-12.02-4.21Z"/>
    <path class="cls-1" d="M174.52,722.88h12.59c9.98,0,15.61,5.35,15.61,13.48,0,11.6-8.14,19.64-20.58,19.64h-14.24l6.62-33.12ZM182.23,752.97c10.5,0,16.98-6.91,16.98-16.47,0-6.38-4.12-10.59-12.49-10.59h-9.37l-5.39,27.06h10.27Z"/>
    <path class="cls-1" d="M210.54,722.88h2.98l-2.69,12.49h-2.51l2.22-12.49Z"/>
    <path class="cls-1" d="M236.23,747.16h-18.5l-5.73,8.85h-3.78l21.76-33.12h3.45l8.52,33.12h-3.5l-2.23-8.85ZM235.57,744.32l-4.5-17.89-11.54,17.89h16.04Z"/>
    <path class="cls-1" d="M288.44,722.88l-6.62,33.12h-3.36l5.25-26.26-17.13,22.05h-1.65l-8.85-22.48-5.3,26.69h-3.36l6.62-33.12h2.84l9.56,24.6,18.93-24.6h3.08Z"/>
    <path class="cls-1" d="M292.66,742.51c0-10.88,7.76-19.92,19.96-19.92,9.8,0,15.38,5.59,15.38,13.77,0,10.89-7.81,19.93-20.01,19.93-9.8,0-15.33-5.59-15.33-13.77ZM324.51,736.51c0-6.43-4.21-10.79-12.21-10.79-9.84,0-16.18,7.61-16.18,16.61,0,6.48,4.21,10.83,12.21,10.83,9.84,0,16.18-7.62,16.18-16.66Z"/>
    <path class="cls-1" d="M352.44,744.93l6.25,11.07h-3.79l-5.96-10.55c-.52.05-1.14.05-1.7.05h-9.41l-2.08,10.51h-3.5l6.62-33.12h11.92c7.53,0,11.83,3.45,11.83,9.37,0,6.81-3.78,11.21-10.17,12.68ZM359.11,732.58c0-4.35-3.08-6.67-8.56-6.67h-8.8l-3.36,16.56h8.94c7.47,0,11.78-3.35,11.78-9.89Z"/>
    <path class="cls-1" d="M378.39,725.91h-11.69l.61-3.03h26.83l-.66,3.03h-11.64l-6.01,30.09h-3.46l6.01-30.09Z"/>
    <path class="cls-1" d="M399.71,722.88h3.45l-6.62,33.12h-3.45l6.62-33.12Z"/>
    <path class="cls-1" d="M405,752.08l1.7-2.74c2.23,2.36,6.44,3.97,10.65,3.97,5.77,0,9.75-2.37,9.75-6.53,0-7.61-17.22-3.78-17.22-14.19,0-6.25,5.54-9.98,13.25-9.98,3.93,0,7.71.99,10.27,2.84l-1.47,2.84c-2.42-1.75-5.58-2.69-8.99-2.69-5.77,0-9.65,2.56-9.65,6.68-.04,7.71,17.27,4.02,17.27,14.05,0,6.38-5.68,9.98-13.53,9.98-4.92,0-9.8-1.8-12.02-4.21Z"/>
    <path class="cls-1" d="M434.08,752.08l1.7-2.74c2.22,2.36,6.43,3.97,10.64,3.97,5.77,0,9.75-2.37,9.75-6.53,0-7.61-17.22-3.78-17.22-14.19,0-6.25,5.54-9.98,13.25-9.98,3.93,0,7.71.99,10.27,2.84l-1.47,2.84c-2.42-1.75-5.58-2.69-8.99-2.69-5.77,0-9.65,2.56-9.65,6.68-.04,7.71,17.27,4.02,17.27,14.05,0,6.38-5.67,9.98-13.53,9.98-4.92,0-9.8-1.8-12.02-4.21Z"/>
    <path class="cls-1" d="M474.98,725.91l-2.36,11.78h17.18l-.57,2.98h-17.18l-2.46,12.3h19.92l-.62,3.03h-23.37l6.62-33.12h22.71l-.62,3.03h-19.26Z"/>
    <path class="cls-1" d="M538.17,722.88l-6.62,33.12h-3.36l5.25-26.26-17.13,22.05h-1.66l-8.85-22.48-5.3,26.69h-3.36l6.62-33.12h2.84l9.56,24.6,18.92-24.6h3.08Z"/>
    <path class="cls-1" d="M551.76,725.91l-2.36,11.78h17.18l-.57,2.98h-17.18l-2.46,12.3h19.92l-.62,3.03h-23.37l6.62-33.12h22.71l-.62,3.03h-19.26Z"/>
    <path class="cls-1" d="M608.19,722.88l-6.62,33.12h-2.84l-15.85-27.44-5.49,27.44h-3.45l6.62-33.12h2.84l15.85,27.44,5.49-27.44h3.45Z"/>
    <path class="cls-1" d="M624.82,725.91h-11.69l.61-3.03h26.83l-.66,3.03h-11.64l-6.01,30.09h-3.46l6.01-30.09Z"/>
    <path class="cls-1" d="M658.52,722.88h12.59c9.98,0,15.61,5.35,15.61,13.48,0,11.6-8.14,19.64-20.58,19.64h-14.24l6.62-33.12ZM666.23,752.97c10.5,0,16.98-6.91,16.98-16.47,0-6.38-4.12-10.59-12.49-10.59h-9.37l-5.39,27.06h10.27Z"/>
    <path class="cls-1" d="M693.12,745.54c0-1.14.1-2.36.38-3.69l3.79-18.97h3.45l-3.79,18.88c-.23,1.23-.38,2.32-.38,3.36,0,5.3,3.12,8.04,8.8,8.04,6.43,0,10.31-3.55,11.87-11.41l3.79-18.88h3.41l-3.79,19.11c-1.94,9.6-7.19,14.29-15.57,14.29-7.62,0-11.97-4.02-11.97-10.75Z"/>
    <path class="cls-1" d="M770.31,745.73c0,6.72-5.49,10.27-14.15,10.27h-15.38l6.62-33.12h14.15c6.34,0,10.17,2.41,10.17,7.05s-2.89,7.76-6.72,8.99c3.31.9,5.3,3.17,5.3,6.81ZM766.86,745.78c0-3.74-2.7-5.11-7.71-5.11h-11.83l-2.46,12.45h11.59c6.62,0,10.41-2.56,10.41-7.34ZM750.29,725.77l-2.41,12.02h10.55c5.68,0,9.7-2.46,9.7-7.24,0-3.27-2.7-4.78-7.24-4.78h-10.6Z"/>
    <path class="cls-1" d="M796.63,744.93l6.25,11.07h-3.79l-5.96-10.55c-.52.05-1.14.05-1.7.05h-9.41l-2.08,10.51h-3.5l6.62-33.12h11.92c7.53,0,11.83,3.45,11.83,9.37,0,6.81-3.78,11.21-10.17,12.68ZM803.3,732.58c0-4.35-3.08-6.67-8.56-6.67h-8.8l-3.36,16.56h8.94c7.47,0,11.78-3.35,11.78-9.89Z"/>
    <path class="cls-1" d="M812.79,745.54c0-1.14.1-2.36.38-3.69l3.79-18.97h3.45l-3.79,18.88c-.23,1.23-.38,2.32-.38,3.36,0,5.3,3.12,8.04,8.8,8.04,6.43,0,10.31-3.55,11.87-11.41l3.79-18.88h3.41l-3.79,19.11c-1.94,9.6-7.19,14.29-15.57,14.29-7.62,0-11.97-4.02-11.97-10.75Z"/>
    <path class="cls-1" d="M854.68,722.88h3.45l-6.62,33.12h-3.45l6.62-33.12Z"/>
    <path class="cls-1" d="M874.78,725.91h-11.69l.61-3.03h26.83l-.66,3.03h-11.64l-6.01,30.09h-3.46l6.01-30.09Z"/>
  </g>
  <path class="cls-1" d="M544.18,485.03c-9.38.23-18.76.41-28.14.51-4.36.05-8.71.12-13.07.23-4.21.11-8.41.17-12.62.19-1.6.02-3.2.05-4.81.11q-12.51.4-16.55-3.1c-1.74-2.56-3.02-5.05-4.25-7.88-.66-1.11-1.32-2.22-1.99-3.36q-.81-1.48-1.64-2.98c-.62-1.12-1.24-2.23-1.87-3.38q-.96-1.74-1.94-3.52c-4.81-8.66-9.66-17.27-14.71-25.79-5.17-8.71-10.2-17.49-15.26-26.27q-1.02-1.77-2.06-3.58c-.61-1.05-1.21-2.11-1.84-3.19q-1.68-2.98-3.64-5.73c-1.74-3.44-1.46-5.02-.66-8.75.23-1.17.46-2.33.7-3.53.26-1.22.51-2.45.78-3.71.44-2.47.88-4.94,1.31-7.41.23-1.31.45-2.61.69-3.96q.34-1.99.7-4.01t.68-3.79c2.62-15.29,3.84-30.37,5.45-45.93h147.85q0,23.42-1.24,35.24c-.14,1.39-.29,2.78-.44,4.22-4.79,44.13-14.79,88.13-31.42,129.36Z"/>
  <path class="cls-1" d="M577.28,277.6h-147.85q-2.18-19.12-4.41-38.62-2.37-13.92-4.96-27.79c-.19-1.02-.37-2.05-.56-3.1-.27-1.27-.54-2.53-.82-3.84-.34-4.63.53-6.44,2.89-10.39.71-1.22,1.43-2.44,2.17-3.7.79-1.31,1.59-2.62,2.39-3.93.81-1.38,1.63-2.75,2.43-4.13,1.67-2.83,3.35-5.66,5.03-8.49,3.68-6.16,7.23-12.4,10.81-18.62,1.35-2.34,2.7-4.67,4.05-7.01.67-1.17,1.35-2.33,2.04-3.53.7-1.21,1.4-2.42,2.12-3.67,2.71-4.69,5.42-9.38,8.12-14.07,1.09-1.9,2.19-3.79,3.29-5.69.66-1.14,1.32-2.28,1.99-3.45.58-1.01,1.16-2.02,1.76-3.05.87-1.52,1.7-3.07,2.49-4.64h73.92q11.59,32.21,14.55,42.89c.36,1.28.71,2.55,1.08,3.87,8.2,29.86,13.76,60.33,16.71,91.16.08.86.17,1.72.26,2.61.76,9.1.5,17.97.5,27.18Z"/>
  <path class="cls-1" d="M561.84,511.51c-13.66.33-27.31.59-40.97.74-6.34.07-12.68.18-19.03.34-6.12.16-12.25.24-18.37.28-2.33.03-4.67.08-7,.16q-17.78.57-22.36-2.88c-3.42-3.84-5.15-8.23-7.02-12.98-1.32-2.46-2.74-4.83-4.18-7.23-1.41-2.49-2.82-4.97-4.23-7.46-1.55-2.73-3.1-5.46-4.66-8.18-.39-.68-.77-1.36-1.17-2.06-3.69-6.47-7.44-12.91-11.2-19.34-5.53-9.46-11.05-18.93-16.55-28.41-.68-1.17-1.37-2.35-2.07-3.56-1.89-3.26-3.74-6.54-5.58-9.82-.56-.94-1.12-1.89-1.7-2.86-6.14-10.95-4.03-20.99-1.26-32.72,2.03-9.16,3.71-18.27,4.9-27.58.13-1,.25-1.99.38-3.02.36-2.95.68-5.89.99-8.84.11-.93.21-1.87.32-2.83,1.15-11.5,1.05-23.06,1.06-34.61,0-1.13,0-2.25,0-3.41-.03-29.18-2.56-57.82-9.71-86.22-2.84-11.44,1.64-19.95,7.22-29.6.53-.93,1.07-1.86,1.62-2.81,3.18-5.52,6.39-11.03,9.63-16.52,4.18-7.09,8.3-14.22,12.41-21.35.68-1.18,1.36-2.36,2.06-3.57,2.84-4.93,5.68-9.86,8.52-14.79,1.5-2.6,2.99-5.2,4.49-7.8,1.4-2.43,2.8-4.86,4.2-7.3q11.55-20.05,13.35-21.85c3.29-.11,6.56-.14,9.85-.13,1.03,0,2.07,0,3.13,0,3.43,0,6.87,0,10.3.02,2.37,0,4.75,0,7.12,0,6.26,0,12.52.02,18.78.03,6.38.01,12.76.02,19.15.02,12.53.01,25.07.03,37.6.05q12.27,30.29,16.21,42.34.6,1.83,1.22,3.7c13.52,41.9,21.37,85.51,24.5,129.39.06.87.13,1.74.19,2.64,4.95,70.7-4.44,142.58-26.6,209.82-.41,1.24-.82,2.49-1.24,3.77-4.2,12.37-9.26,24.39-14.28,36.44ZM554.11,492.75q1.67-3.5,3.02-7.51c.26-.74.53-1.48.8-2.24.86-2.42,1.69-4.85,2.53-7.28.29-.84.58-1.68.88-2.54,16.01-46.25,25.18-94.02,28.52-142.83.12-1.77.26-3.54.4-5.32.19-2.47.34-4.94.48-7.41.09-1.42.19-2.83.28-4.3-.49-3.73-1.09-5.54-3.85-8.1-5.24-2.78-11.79-1.89-17.58-1.84-1.59,0-3.18-.01-4.77-.02-4.31-.02-8.62,0-12.93.02-4.51.02-9.03,0-13.54,0-7.58,0-15.16.01-22.74.04-8.76.04-17.52.04-26.28.02-8.43-.02-16.86-.01-25.29,0-3.59,0-7.17,0-10.76,0-4.22,0-8.45,0-12.67.04-1.55,0-3.1,0-4.65,0-2.12,0-4.23.01-6.35.03-1.18,0-2.37,0-3.59,0-4.01.7-5.86,2.11-8.71,4.97q-.99,3.67-1.11,7.87c-.05.77-.11,1.55-.16,2.34-.11,1.66-.22,3.32-.31,4.99-.25,4.38-.58,8.75-.91,13.13q-.1,1.31-.19,2.66c-1.22,16.08-3.6,32.3-7.78,47.89-1.55,7.56.2,11.69,3.98,18.08q.74,1.28,1.49,2.59c1.65,2.87,3.32,5.72,5,8.58,1.2,2.06,2.39,4.12,3.59,6.18,2.58,4.44,5.17,8.87,7.76,13.29,4.18,7.14,8.31,14.32,12.44,21.49,5.4,9.37,10.81,18.73,16.27,28.07.6,1.04,1.2,2.08,1.82,3.14q.83,1.42,1.68,2.86c.48.83.97,1.66,1.47,2.51q1.19,2.07,3.51,3c2.64.13,5.24.19,7.88.2q1.22.01,2.46.02c2.69.02,5.38.03,8.07.05.92,0,1.84,0,2.78.01,4.86.02,9.71.04,14.57.05,5.02.01,10.04.05,15.06.09,3.86.03,7.71.04,11.57.04,1.85,0,3.7.02,5.55.04,2.59.03,5.18.03,7.77.02.76.01,1.53.03,2.32.04,5.01-.05,7.24-.96,10.26-4.97ZM589.27,287.72c1.84-3.53,1.48-6.32,1.25-10.27-.04-.78-.08-1.56-.13-2.36-.14-2.57-.32-5.13-.49-7.69-.06-.89-.11-1.77-.17-2.68-3.09-48.81-12.33-96.19-28.17-142.48-.45-1.33-.91-2.66-1.38-4.03q-3.34-10.97-9.38-20.45c-2.65-.16-5.27-.24-7.92-.28-.83-.02-1.66-.03-2.51-.05-7.66-.14-15.32-.21-22.98-.27-5.15-.04-10.29-.1-15.44-.2-4.97-.1-9.95-.16-14.92-.18-1.89-.02-3.79-.05-5.68-.1q-10.17-.64-19.14,3.13c-1.75,2.57-2.94,5.01-4.09,7.89-.7,1.16-1.39,2.32-2.11,3.51-.6,1.06-1.2,2.12-1.82,3.21-.69,1.21-1.38,2.43-2.09,3.68-.36.63-.71,1.26-1.08,1.91-1.54,2.72-3.08,5.44-4.63,8.16-.8,1.41-1.6,2.81-2.4,4.22-3.93,6.91-7.9,13.8-11.88,20.69-.67,1.15-1.33,2.31-2.02,3.5-2.06,3.57-4.12,7.14-6.19,10.71-2.71,4.69-5.42,9.38-8.12,14.07-1.09,1.9-2.19,3.79-3.29,5.69-.66,1.14-1.32,2.28-1.99,3.45-.58,1.01-1.16,2.02-1.76,3.05-4.92,8.65-.62,19.94,1.24,29.25,3.34,17.31,5.54,34.85,6.42,52.46.07,1.39.14,2.77.22,4.2.05,1.26.1,2.52.16,3.82.58,3.59.94,4.38,3.83,6.48q3.11.5,6.7.43c1.4.01,2.8.02,4.25.03,1.56,0,3.11,0,4.67-.02,1.64,0,3.27.01,4.91.02,4.45.02,8.89.02,13.34.01,3.71,0,7.42,0,11.13,0,8.75.02,17.5.01,26.25,0,9.03-.01,18.07,0,27.1.03,7.75.02,15.5.03,23.25.03,4.63,0,9.26,0,13.9.02,4.35.02,8.71.01,13.06,0,1.6,0,3.2,0,4.8.01,2.18.01,4.36,0,6.54-.02,1.22,0,2.44,0,3.7,0q3.11-.28,5.06-2.57Z"/>
  <path class="cls-1" d="M532.19,71.41q-1.35,0-2.72,0c-1.02,0-2.03,0-3.08,0-1.1,0-2.21-.01-3.35-.02-1.12,0-2.25,0-3.41,0-3.61,0-7.22-.02-10.83-.03-2.44,0-4.88-.01-7.32-.02-6-.01-11.99-.03-17.99-.05v-27.58c7.21-.03,14.42-.05,21.62-.06,2.45,0,4.91-.01,7.36-.02,3.52-.01,7.04-.02,10.56-.02q1.66,0,3.35-.02c1.02,0,2.03,0,3.08,0q1.35,0,2.72,0,2.06.13,3.16,1.24c.11,1.87.14,3.75.15,5.62q0,1.7,0,3.44c0,1.2,0,2.39-.01,3.62,0,1.2,0,2.39.01,3.62,0,1.14,0,2.27,0,3.44,0,1.05,0,2.1,0,3.18-.18,3.04-.27,3.48-3.31,3.67Z"/>
  <path class="cls-1" d="M535.36,550.13h-51.86v-26.48h51.86v26.48Z"/>
  <path class="cls-2" d="M317.75,419.09c-67.25-67.25-67.25-176.29,0-243.54,5.17-5.17,5.17-13.56,0-18.73-5.17-5.17-13.56-5.17-18.73,0-77.6,77.6-77.6,203.41,0,281.01,5.17,5.17,13.56,5.17,18.73,0,5.17-5.17,5.17-13.56,0-18.73Z"/>
  <path class="cls-2" d="M355.21,381.63c-46.56-46.56-46.56-122.05,0-168.61,5.17-5.17,5.17-13.56,0-18.73-5.17-5.17-13.56-5.17-18.73,0-56.9,56.91-56.9,149.17,0,206.07,5.17,5.17,13.56,5.17,18.73,0,5.17-5.17,5.17-13.56,0-18.73Z"/>
</svg>