<?xml version="1.0" encoding="UTF-8"?>
<svg id="Layer_1" data-name="Layer 1" xmlns="http://www.w3.org/2000/svg" viewBox="0 0 839.32 707.26">
  <defs>
    <style>
      .cls-1 {
        fill: #286f9d;
      }
    </style>
  </defs>
  <g>
    <path class="cls-1" d="M192.56,649.94l-6.8-9.75c-.43.05-.86.05-1.29.05h-7.51v9.7h-6.18v-33.29h13.7c8.75,0,14.17,4.47,14.17,11.84,0,5.04-2.57,8.75-7.09,10.51l7.66,10.94h-6.66ZM184.19,621.89h-7.23v13.27h7.23c5.42,0,8.23-2.48,8.23-6.66s-2.81-6.61-8.23-6.61Z"/>
    <path class="cls-1" d="M203.14,633.29c0-9.84,7.61-17.12,17.93-17.12s17.92,7.23,17.92,17.12-7.61,17.13-17.92,17.13-17.93-7.28-17.93-17.13ZM232.77,633.29c0-6.8-4.99-11.69-11.69-11.69s-11.7,4.9-11.7,11.69,4.99,11.7,11.7,11.7,11.69-4.9,11.69-11.7Z"/>
    <path class="cls-1" d="M251.81,621.89h-11.03v-5.23h28.25v5.23h-11.03v28.05h-6.18v-28.05Z"/>
    <path class="cls-1" d="M270.81,633.29c0-9.84,7.61-17.12,17.93-17.12s17.92,7.23,17.92,17.12-7.61,17.13-17.92,17.13-17.93-7.28-17.93-17.13ZM300.44,633.29c0-6.8-4.99-11.69-11.69-11.69s-11.7,4.9-11.7,11.69,4.99,11.7,11.7,11.7,11.69-4.9,11.69-11.7Z"/>
    <path class="cls-1" d="M334.98,649.94l-6.8-9.75c-.43.05-.86.05-1.29.05h-7.51v9.7h-6.18v-33.29h13.7c8.75,0,14.17,4.47,14.17,11.84,0,5.04-2.57,8.75-7.09,10.51l7.66,10.94h-6.66ZM326.61,621.89h-7.23v13.27h7.23c5.42,0,8.23-2.48,8.23-6.66s-2.81-6.61-8.23-6.61Z"/>
    <path class="cls-1" d="M346.56,630.63h13.08v4.94h-13.08v-4.94Z"/>
    <path class="cls-1" d="M373.36,621.84v10.13h16.07v5.23h-16.07v12.74h-6.18v-33.29h24.3v5.18h-18.12Z"/>
    <path class="cls-1" d="M419.23,649.94l-6.8-9.75c-.43.05-.86.05-1.29.05h-7.51v9.7h-6.18v-33.29h13.7c8.75,0,14.17,4.47,14.17,11.84,0,5.04-2.57,8.75-7.09,10.51l7.66,10.94h-6.66ZM410.86,621.89h-7.23v13.27h7.23c5.42,0,8.23-2.48,8.23-6.66s-2.81-6.61-8.23-6.61Z"/>
    <path class="cls-1" d="M432.18,616.66h6.18v33.29h-6.18v-33.29Z"/>
    <path class="cls-1" d="M472.31,644.76v5.18h-24.97v-33.29h24.3v5.18h-18.12v8.65h16.07v5.09h-16.07v9.18h18.78Z"/>
    <path class="cls-1" d="M508.76,616.66v33.29h-5.09l-18.36-22.54v22.54h-6.13v-33.29h5.09l18.36,22.54v-22.54h6.13Z"/>
    <path class="cls-1" d="M517.67,616.66h14.55c10.79,0,18.16,6.65,18.16,16.64s-7.37,16.65-18.16,16.65h-14.55v-33.29ZM531.94,644.71c7.42,0,12.22-4.51,12.22-11.41s-4.8-11.41-12.22-11.41h-8.08v22.82h8.08Z"/>
    <path class="cls-1" d="M556.92,616.66h6.18v28.05h17.41v5.23h-23.59v-33.29Z"/>
    <path class="cls-1" d="M596.28,638.2v11.74h-6.18v-11.65l-13.08-21.63h6.61l9.75,16.22,9.84-16.22h6.09l-13.03,21.54Z"/>
    <path class="cls-1" d="M0,693.41c0-10.94,7.8-20.02,20.26-20.02,5.33,0,9.61,1.71,11.84,4.85l-2.47,2.19c-2.09-2.56-5.28-3.9-9.65-3.9-10.13,0-16.5,7.65-16.5,16.69,0,6.51,4.23,10.89,12.37,10.89,4.33,0,7.89-1.33,10.56-3.95l2.04,2.32c-2.95,3.09-7.66,4.76-12.89,4.76-9.89,0-15.55-5.62-15.55-13.84Z"/>
    <path class="cls-1" d="M33.45,693.41c0-10.94,7.8-20.02,20.07-20.02,9.85,0,15.46,5.62,15.46,13.84,0,10.94-7.85,20.03-20.11,20.03-9.85,0-15.41-5.62-15.41-13.84ZM65.46,687.37c0-6.46-4.23-10.84-12.27-10.84-9.89,0-16.26,7.65-16.26,16.69,0,6.51,4.23,10.89,12.27,10.89,9.89,0,16.26-7.66,16.26-16.74Z"/>
    <path class="cls-1" d="M114.46,673.68l-6.66,33.29h-3.37l5.28-26.39-17.21,22.16h-1.67l-8.89-22.59-5.32,26.82h-3.38l6.66-33.29h2.85l9.61,24.72,19.02-24.72h3.09Z"/>
    <path class="cls-1" d="M149.09,683.1c0,8.56-5.94,13.36-15.45,13.36h-9.42l-2.14,10.51h-3.47l6.66-33.29h11.94c7.51,0,11.89,3.47,11.89,9.42ZM145.57,683.43c0-4.37-3.09-6.7-8.65-6.7h-8.75l-3.37,16.64h8.89c7.56,0,11.89-3.37,11.89-9.94Z"/>
    <path class="cls-1" d="M173.41,698.08h-18.59l-5.76,8.89h-3.8l21.88-33.29h3.47l8.56,33.29h-3.52l-2.24-8.89ZM172.75,695.23l-4.52-17.98-11.6,17.98h16.12Z"/>
    <path class="cls-1" d="M195.51,676.73h-11.75l.62-3.04h26.96l-.66,3.04h-11.7l-6.04,30.24h-3.47l6.04-30.24Z"/>
    <path class="cls-1" d="M216.93,673.68h3.47l-6.66,33.29h-3.47l6.66-33.29Z"/>
    <path class="cls-1" d="M254.3,696.65c0,6.76-5.52,10.32-14.22,10.32h-15.46l6.66-33.29h14.22c6.37,0,10.22,2.42,10.22,7.09s-2.9,7.8-6.75,9.03c3.33.9,5.33,3.19,5.33,6.85ZM250.83,696.7c0-3.75-2.71-5.14-7.75-5.14h-11.89l-2.47,12.51h11.65c6.66,0,10.46-2.57,10.46-7.37ZM234.18,676.58l-2.42,12.08h10.6c5.71,0,9.75-2.48,9.75-7.28,0-3.28-2.71-4.8-7.28-4.8h-10.65Z"/>
    <path class="cls-1" d="M267.11,673.68h3.47l-6.04,30.24h18.64l-.62,3.04h-22.11l6.66-33.29Z"/>
    <path class="cls-1" d="M297.95,676.73l-2.38,11.84h17.26l-.57,3h-17.26l-2.47,12.37h20.02l-.62,3.04h-23.49l6.66-33.29h22.83l-.62,3.04h-19.35Z"/>
    <path class="cls-1" d="M355.5,698.08h-18.59l-5.76,8.89h-3.8l21.88-33.29h3.47l8.56,33.29h-3.52l-2.24-8.89ZM354.84,695.23l-4.52-17.98-11.6,17.98h16.12Z"/>
    <path class="cls-1" d="M399.33,673.68l-21.4,33.29h-3.42l-8.13-33.29h3.61l6.99,28.86,18.64-28.86h3.71Z"/>
    <path class="cls-1" d="M407.01,676.73l-2.38,11.84h17.26l-.57,3h-17.26l-2.47,12.37h20.02l-.62,3.04h-23.49l6.66-33.29h22.83l-.62,3.04h-19.35Z"/>
    <path class="cls-1" d="M429.19,693.41c0-10.94,7.8-20.02,20.26-20.02,5.33,0,9.61,1.71,11.84,4.85l-2.47,2.19c-2.09-2.56-5.28-3.9-9.65-3.9-10.13,0-16.5,7.65-16.5,16.69,0,6.51,4.23,10.89,12.37,10.89,4.33,0,7.89-1.33,10.56-3.95l2.04,2.32c-2.95,3.09-7.66,4.76-12.89,4.76-9.89,0-15.55-5.62-15.55-13.84Z"/>
    <path class="cls-1" d="M482.37,673.68h3.47l-6.04,30.24h18.64l-.62,3.04h-22.11l6.66-33.29Z"/>
    <path class="cls-1" d="M513.21,676.73l-2.38,11.84h17.26l-.57,3h-17.26l-2.47,12.37h20.02l-.62,3.04h-23.49l6.66-33.29h22.83l-.62,3.04h-19.35Z"/>
    <path class="cls-1" d="M533.12,703.02l1.71-2.76c2.23,2.37,6.47,3.99,10.7,3.99,5.8,0,9.8-2.38,9.8-6.57,0-7.65-17.31-3.8-17.31-14.27,0-6.28,5.56-10.03,13.32-10.03,3.95,0,7.75,1,10.32,2.85l-1.47,2.85c-2.43-1.76-5.61-2.71-9.04-2.71-5.8,0-9.7,2.57-9.7,6.71-.04,7.75,17.36,4.04,17.36,14.12,0,6.41-5.7,10.03-13.6,10.03-4.94,0-9.85-1.81-12.08-4.23Z"/>
    <path class="cls-1" d="M597.47,695.84l6.28,11.13h-3.81l-5.99-10.61c-.52.05-1.14.05-1.71.05h-9.46l-2.09,10.56h-3.52l6.66-33.29h11.98c7.56,0,11.89,3.47,11.89,9.42,0,6.85-3.8,11.26-10.22,12.74ZM604.18,683.43c0-4.37-3.09-6.7-8.61-6.7h-8.85l-3.37,16.64h8.99c7.51,0,11.84-3.37,11.84-9.94Z"/>
    <path class="cls-1" d="M611.62,693.41c0-10.94,7.8-20.02,20.07-20.02,9.85,0,15.46,5.62,15.46,13.84,0,10.94-7.85,20.03-20.11,20.03-9.85,0-15.41-5.62-15.41-13.84ZM643.62,687.37c0-6.46-4.23-10.84-12.27-10.84-9.89,0-16.26,7.65-16.26,16.69,0,6.51,4.23,10.89,12.27,10.89,9.89,0,16.26-7.66,16.26-16.74Z"/>
    <path class="cls-1" d="M663.42,676.73h-11.75l.62-3.04h26.96l-.66,3.04h-11.7l-6.04,30.24h-3.47l6.04-30.24Z"/>
    <path class="cls-1" d="M677.81,693.41c0-10.94,7.8-20.02,20.07-20.02,9.85,0,15.46,5.62,15.46,13.84,0,10.94-7.85,20.03-20.11,20.03-9.85,0-15.41-5.62-15.41-13.84ZM709.82,687.37c0-6.46-4.23-10.84-12.27-10.84-9.89,0-16.26,7.65-16.26,16.69,0,6.51,4.23,10.89,12.27,10.89,9.89,0,16.26-7.66,16.26-16.74Z"/>
    <path class="cls-1" d="M737.89,695.84l6.28,11.13h-3.81l-5.99-10.61c-.52.05-1.14.05-1.71.05h-9.46l-2.09,10.56h-3.52l6.66-33.29h11.98c7.56,0,11.89,3.47,11.89,9.42,0,6.85-3.8,11.26-10.22,12.74ZM744.6,683.43c0-4.37-3.09-6.7-8.61-6.7h-8.85l-3.37,16.64h8.99c7.51,0,11.84-3.37,11.84-9.94Z"/>
    <path class="cls-1" d="M749.57,703.02l1.71-2.76c2.23,2.37,6.47,3.99,10.7,3.99,5.8,0,9.8-2.38,9.8-6.57,0-7.65-17.31-3.8-17.31-14.27,0-6.28,5.56-10.03,13.32-10.03,3.95,0,7.75,1,10.32,2.85l-1.47,2.85c-2.43-1.76-5.61-2.71-9.04-2.71-5.8,0-9.7,2.57-9.7,6.71-.04,7.75,17.36,4.04,17.36,14.12,0,6.41-5.7,10.03-13.6,10.03-4.94,0-9.85-1.81-12.08-4.23Z"/>
  </g>
  <path class="cls-1" d="M390.78,44.3c2.06-.02,4.12-.03,6.18-.05,1.15,0,2.29-.02,3.48-.03,5.45.11,10.72.92,16.08,1.85,1.14.2,2.27.39,3.44.59,39.33,7.14,74.74,25.72,103.33,53.47.6.57,1.21,1.15,1.83,1.74,35.09,33.46,58.24,82.25,59.81,131.01.09,4.07.1,8.13.09,12.2q0,1.29,0,2.61c-.07,23.02-4.07,44.16-11.36,65.97q-.64,1.93-1.29,3.89-.44,1.33-.9,2.68c-.6-.11-1.21-.21-1.83-.32-27.37-4.65-53.72-2.89-77.16,13.7-9.77,7.25-17.48,15.21-23.53,25.77q-3.79,6.54-7.6,7.7-2.87-.1-5.63-.51c-3.83-.52-5.97.8-9.08,2.94-4.12,3.78-5.29,7.33-5.64,12.76.29,4.48,1.65,7.89,4.55,11.33,2.79,1.88,5.61,3.22,8.76,4.38-.04.87-.08,1.73-.12,2.62-.28,11.47,1.38,22.26,3.4,33.51-14.76,5.31-29.38,9.63-44.9,12.05-.71.11-1.42.22-2.14.34-51.61,6.94-106.68-6.21-148.27-37.83-4.36-3.44-8.58-7.03-12.75-10.69-.65-.57-1.3-1.13-1.97-1.71-8.26-7.21-15.42-14.77-22.12-23.47-.86-1.05-1.72-2.1-2.61-3.19-23.83-29.59-41.37-70.93-41.22-109.35,0-1.28,0-2.56.01-3.88,0-.97.01-1.95.02-2.95q1.23,0,2.49-.01c7.77-.04,15.53-.1,23.3-.19,3.99-.04,7.98-.08,11.98-.1,3.86-.02,7.71-.05,11.57-.11,2.18-.02,4.36-.03,6.54-.03q9.67-.04,17.5-5.04c4.5-5.72,5.18-12.56,5.89-19.57,3.87-31.11,19.85-60.19,44.72-79.59,19.58-14.73,40.48-22.74,64.81-26.2,6.32-.91,11.07-1.62,15.99-6.04,3.02-4.18,3.71-7.11,3.76-12.23q.03-2.01.07-4.05c0-1.43.01-2.87.02-4.34.02-1.49.04-2.98.06-4.47.05-3.91.08-7.82.11-11.72.03-3.99.08-7.99.13-11.98.09-7.83.17-15.65.23-23.48ZM415.16,84.25c-3.65,3.8-5.73,7.24-6.02,12.56.65,5.7,3.38,9.84,7.51,13.68,5.18,3.41,9.62,3.47,15.74,2.81,5.3-2.55,8.4-5.65,10.95-10.95.87-5.47.63-9.63-1.78-14.65-3.91-4.32-7.29-6.74-12.94-8.28-5.53-.1-9.23,1.23-13.47,4.84ZM371.35,128.05c-3.65,3.8-5.73,7.24-6.02,12.56.65,5.7,3.38,9.84,7.51,13.68,5.18,3.41,9.62,3.47,15.74,2.81,5.3-2.55,8.4-5.65,10.95-10.95.87-5.47.63-9.63-1.78-14.65-3.91-4.32-7.29-6.74-12.94-8.28-5.53-.1-9.23,1.23-13.47,4.84ZM294,162.16c-2.41,5.01-2.65,9.18-1.78,14.65,2.57,5.33,5.77,8.15,10.95,10.95,5,1.63,8.52.97,13.25-.99,4.04-2.33,6.57-5.81,8.65-9.96.59-5.39.6-9.71-1.78-14.65-3.55-3.92-6.39-6.81-11.8-7.67-7.95-.36-12.12,1.74-17.5,7.67ZM442.26,162.78c-2.11,3.76-2.47,7.58-2.21,11.83,1.79,5.16,4.51,8.64,8.76,12.05,4.79,2.3,8.79,2.52,13.89,1.1,4.96-1.92,7.27-4.37,10.2-8.76,1.59-4.77,2.03-9.4.35-14.17-2.46-4.74-5.28-7.64-10.2-9.92-9.05-1.28-15,.51-20.79,7.88ZM505.49,160.97c-3.28,4.97-3.66,8.86-3.01,14.74,1.88,5.13,4.12,8.06,8.76,10.95,4.4,1.8,7.92,2.28,12.66,1.78,5.7-2.7,10.03-6.78,12.27-12.79.99-5.5-.27-9.45-3.03-14.17-4.26-4.38-7.85-6.74-13.96-6.91-6.09.09-9.75,1.55-13.69,6.41ZM336.85,205.41c-9.5,11.38-16.16,27.34-15.36,42.39,2.39,18.62,9.24,33.88,23.67,46.16,14.43,10.9,30.29,13.38,47.81,12.05,5.04-.92,9.53-2.37,14.24-4.38,1.03-.44,2.06-.88,3.12-1.33,15.46-7.51,24.96-20.99,31.09-36.64,4.88-14.9,2.45-31.27-3.94-45.21-7.13-13.96-18.38-24.37-33.08-30.09-25.05-8.03-49.18-1.96-67.55,17.04ZM267.07,232.25c-3.34,3.47-5.88,6.6-6.75,11.42.17,5.48,1.11,9.6,5.03,13.63,5.28,4.51,8.55,5.31,15.32,5.22,5.52-.6,8.37-3.59,11.95-7.56,2.41-5.01,2.65-9.18,1.78-14.65-2.57-5.33-5.77-8.15-10.95-10.95-6.09-1.82-11.38-1.28-16.39,2.89ZM476.48,233.18c-3.65,3.8-5.73,7.24-6.02,12.56.65,5.7,3.38,9.84,7.51,13.68,5.18,3.41,9.62,3.47,15.74,2.81,5.3-2.55,8.4-5.65,10.95-10.95.87-5.47.63-9.63-1.78-14.65-3.91-4.32-7.29-6.74-12.94-8.28-5.53-.1-9.23,1.23-13.47,4.84ZM520.2,276.98c-3.61,3.78-5.65,7.28-5.94,12.56.65,5.7,3.38,9.84,7.51,13.68,5.18,3.41,9.62,3.47,15.74,2.81,5.3-2.55,8.4-5.65,10.95-10.95.87-5.47.63-9.63-1.78-14.65-3.67-4.06-7.1-6.58-12.32-8.28-5.55-.11-9.85,1.3-14.16,4.84ZM232.61,309.92c-2.99,4.67-3.66,9.28-2.81,14.71,1.94,4.71,4.37,7.95,8.49,10.95,6.2,1.91,11.18,2.23,17.04-.75,4.53-3.89,7.38-6.74,8.42-12.73.38-5.52-1.08-9.49-4.38-13.89-4.01-3.55-7.76-5.23-13.05-5.65-5.68.45-9.88,3.33-13.71,7.37ZM295.71,308.35c-3.17,4.17-4.38,7.78-4.59,13,.8,5.1,2.73,8.62,6.64,11.98,5.48,3.85,9.74,4.08,16.36,3.35,5.3-2.55,8.4-5.65,10.95-10.95.88-5.5.66-9.64-1.85-14.65-4.42-5.02-7.56-7.92-14.52-8.46-5.22.25-8.93,2.65-12.99,5.72ZM444.64,308.62c-3.66,4.39-4.84,7.46-4.59,13.14.77,5.58,3.42,9.14,7.67,12.73,4.65,2.81,8.94,2.9,14.24,2.19,4.56-1.49,7.68-3.88,10.33-7.87,2.27-4.59,2.61-9.02,1.71-14.03-2.6-5.3-5.75-8.2-10.95-10.95-7.58-2.07-12.49-.2-18.41,4.79ZM372.2,337.38c-3.34,3.47-5.88,6.6-6.75,11.42.17,5.48,1.11,9.6,5.03,13.63,5.28,4.51,8.55,5.31,15.32,5.22,5.52-.6,8.37-3.59,11.95-7.56,2.41-5.01,2.65-9.18,1.78-14.65-2.57-5.33-5.77-8.15-10.95-10.95-6.09-1.82-11.38-1.28-16.39,2.89ZM328.4,381.18c-3.34,3.47-5.88,6.6-6.75,11.42.17,5.48,1.11,9.6,5.03,13.63,5.28,4.51,8.55,5.31,15.32,5.22,5.52-.6,8.37-3.59,11.95-7.56,2.41-5.01,2.65-9.18,1.78-14.65-2.57-5.33-5.77-8.15-10.95-10.95-6.09-1.82-11.38-1.28-16.39,2.89Z"/>
  <path class="cls-1" d="M369.63.09c.84-.03,1.68-.06,2.55-.09,3.52-.01,5.99.13,8.97,2.09,2.94,4.16,2.58,7.88,2.53,12.87,0,1.02.02,2.04.02,3.09.02,3.37,0,6.74,0,10.1,0,2.34,0,4.68.01,7.02,0,4.9,0,9.81-.02,14.71-.02,6.29-.01,12.58.02,18.87.02,4.83.01,9.66,0,14.5,0,2.32,0,4.64.01,6.96.01,3.24,0,6.48-.03,9.72,0,.96.02,1.92.03,2.91q-.09,6.51-2.68,9.92c-3.12,2.21-5.17,2.89-8.92,3.28-36.31,4.17-67.76,20.03-91.21,48.31-15.66,20.07-25.59,44.7-27.55,70.09-.34,4.16-1.15,6.93-3.83,10.27-3.71,1.86-7.94,1.28-12.02,1.29-1.02,0-2.04.01-3.09.02-3.38.02-6.76.03-10.14.05-1.15,0-2.3,0-3.49.01-6.1.02-12.19.04-18.29.05-6.31.01-12.61.05-18.92.09-4.84.03-9.68.04-14.53.04-2.33,0-4.65.02-6.98.04-3.25.03-6.5.03-9.75.02q-1.45.02-2.92.04-6.48-.06-9.98-2.53c-2.41-3.63-2.24-7.16-2.14-11.37.01-.9.03-1.81.04-2.74.87-28.53,8.71-57.53,20.22-83.56.39-.88.77-1.76,1.17-2.66,3.25-6.64,6.82-9.4,13.41-12.53,1.77-.91,3.53-1.83,5.29-2.75q1.33-.7,2.69-1.41c11.08-6.11,21.49-14.07,31.1-22.25.82-.7,1.64-1.39,2.48-2.11,20.82-18.27,39.99-39.1,52.54-64.03,5.53-10.75,10.52-16.75,22.35-20.62,2.89-.95,5.73-1.99,8.58-3.04,14.88-5.33,29.91-9.21,45.45-12.04q1.17-.22,2.37-.44c8.19-1.44,16.36-1.99,24.66-2.16ZM306.66,49.43c-4.71,4.98-7.02,9.95-7.32,16.84.3,6.41,2.32,10.45,6.81,14.96,5.79,5.17,10.24,6.23,17.98,6.16,6.24-.76,10.22-4.14,14.49-8.53,4.28-6.75,4.59-12.65,2.87-20.33-3.02-5.92-7.18-10.63-13.46-12.99-8.28-2.1-14.18-.43-21.38,3.88ZM187.32,169.09c-4.07,5.54-6.19,10.65-5.7,17.57,1.11,6.75,4.55,10.69,9.82,14.88,5.53,3.84,10.45,4.22,16.98,3.37,6.1-1.6,10.73-5.65,14.27-10.79,2.55-5.17,2.58-10.62,1.64-16.22-2.71-6.66-7.16-11.04-13.41-14.51-8.86-2.42-17.21-1.24-23.6,5.7Z"/>
  <path class="cls-1" d="M604.31,347.63c13.82,13.22,23.91,33.48,24.35,52.79.45,24.94-4.91,46.79-22.18,65.5-9.12,9.35-19.46,16.18-31.74,20.78q-1.79.68-3.62,1.37c-22.4,7.19-46.22,3.96-66.85-6.62-19.46-10.5-33.61-28.46-40.06-49.59-5.64-21.68-4.08-43.78,6.28-63.95,12.4-21.04,29.88-34.98,53.28-41.87,29.38-7.15,58.72,1.17,80.55,21.59ZM572.56,367.34c-1.9,2.37-3.45,4.57-5.02,7.13-.95,1.49-1.9,2.97-2.85,4.46q-.75,1.18-1.51,2.38c-2.72,4.25-5.56,8.42-8.39,12.6-1.16,1.73-2.32,3.47-3.49,5.2-1.78,2.66-3.56,5.31-5.35,7.97-1.76,2.61-3.51,5.23-5.26,7.85-.54.8-1.08,1.6-1.64,2.42q-2.76,3.69-3.73,8.03c-5.93-2.69-10.48-6.22-15.39-10.41-4.29-3.47-7.57-4.72-13.08-4.92-4,1.73-6.72,3.8-8.76,7.67-.61,3.6-.89,6.23,1.1,9.43,4.91,5.74,10.61,10.08,16.69,14.52,1,.74,1.99,1.48,3.02,2.24,7.77,5.74,12.05,7.61,21.89,6.66,11.47-5.07,18.69-20.79,25.32-31,1.53-2.35,3.06-4.7,4.59-7.05,1.01-1.55,2.02-3.11,3.03-4.66,2.95-4.53,5.93-9.02,8.95-13.5.67-1,1.34-1.99,2.02-3.02,1.2-1.79,2.42-3.58,3.65-5.36,3-4.51,4.79-7.55,3.89-13.16-1.99-3.82-3.37-6.03-7.19-8.08-5.21-1.34-8.02-.17-12.52,2.6Z"/>
</svg>